<?xml version="1.0" standalone="no"?>
<!DOCTYPE svg PUBLIC "-//W3C//DTD SVG 1.1//EN" "http://www.w3.org/Graphics/SVG/1.1/DTD/svg11.dtd" >
<svg xmlns="http://www.w3.org/2000/svg">
<metadata>
This is a custom SVG webfont generated by Font Squirrel.
Copyright   : Copyright c 2006 by typetogether All rights reserved
Designer    : Veronika Burian Jose Scaglione
Foundry     : typetogether
Foundry URL : wwwtypetogethercom
</metadata>
<defs>
<font id="RonniaExtraboldRegular" horiz-adv-x="1024" >
<font-face units-per-em="2048" ascent="1638" descent="-410" />
<missing-glyph horiz-adv-x="286" />
<glyph unicode=" "  horiz-adv-x="286" />
<glyph unicode="&#x09;" horiz-adv-x="286" />
<glyph unicode="&#xa0;" horiz-adv-x="286" />
<glyph unicode="!" horiz-adv-x="561" d="M82 1475h397l-39 -1024h-315zM100 162q0 78 48.5 132t130.5 54q84 0 132 -50t48 -134q0 -80 -46 -132t-130 -52q-82 0 -132.5 50t-50.5 132z" />
<glyph unicode="&#x22;" horiz-adv-x="804" d="M51 1477h301l-33 -527h-233zM453 1477h301l-33 -527h-234z" />
<glyph unicode="#" horiz-adv-x="1447" d="M41 356l88 248h211l51 170h-213l78 252h215l100 336h271l-101 -336h168l103 336h270l-100 -336h225l-82 -252h-223l-51 -170h231l-86 -248h-227l-105 -356h-274l106 356h-166l-104 -356h-274l106 356h-217zM610 604h170l54 170h-172z" />
<glyph unicode="$" horiz-adv-x="1153" d="M76 135l149 289q174 -129 305 -129q123 0 123 100q0 51 -40 78t-150 68q-113 43 -184.5 89t-124 136t-52.5 217q0 160 85 269.5t225 152.5v197h348v-193q258 -68 309 -346l-321 -94q-43 172 -148 172q-47 0 -77.5 -27t-30.5 -80q0 -68 44 -107.5t152 -84.5 q84 -37 134 -63.5t109.5 -75t88.5 -117t29 -158.5q0 -147 -71 -258t-206 -158v-221h-348v199q-92 8 -196.5 54t-151.5 91z" />
<glyph unicode="%" horiz-adv-x="2021" d="M61 1032q0 215 107.5 328t271.5 113q170 0 269.5 -110t99.5 -327q0 -215 -101.5 -331.5t-271.5 -116.5q-174 0 -274.5 117.5t-100.5 326.5zM360 1028q0 -215 74 -215q76 0 76 215q0 225 -72 225q-78 0 -78 -225zM575 0l527 1473h330l-529 -1473h-328zM1212 418 q0 215 107.5 327.5t271.5 112.5q170 0 269.5 -109.5t99.5 -326.5q0 -215 -101.5 -332t-271.5 -117q-174 0 -274.5 118t-100.5 327zM1511 414q0 -215 74 -215q76 0 76 215q0 225 -72 225q-78 0 -78 -225z" />
<glyph unicode="&#x26;" horiz-adv-x="1492" d="M61 414q0 94 26 168.5t77 128t93 83t105 64.5q-104 137 -104 262q0 160 107.5 258.5t328.5 98.5q203 0 316.5 -86t113.5 -240q0 -135 -90 -266l-274 153q18 49 18 86q0 35 -22.5 53.5t-55.5 18.5q-37 0 -58 -22.5t-21 -57.5q0 -55 84 -151q365 -414 768 -815l-238 -234 q-125 100 -229 211q-186 -147 -426 -147q-266 0 -392.5 123t-126.5 311zM442 444q0 -70 46.5 -114.5t119.5 -44.5q100 0 176 69q-121 115 -241 264q-101 -70 -101 -174z" />
<glyph unicode="'" horiz-adv-x="403" d="M51 1477h301l-33 -527h-233z" />
<glyph unicode="(" horiz-adv-x="708" d="M82 696q0 213 72.5 467t203.5 496l328 -131q-117 -254 -177 -445.5t-60 -392.5q0 -213 57 -395t174 -432l-320 -152q-278 465 -278 985z" />
<glyph unicode=")" horiz-adv-x="708" d="M23 -158q117 254 177 445.5t60 392.5q0 213 -57.5 395t-173.5 432l319 152q279 -465 279 -985q0 -213 -73 -467t-204 -496z" />
<glyph unicode="*" horiz-adv-x="974" d="M20 1257q0 55 33 91t82 36q47 0 101 -34l151 -99l-45 -135l-195 25q-127 16 -127 116zM150 831q0 -53 35.5 -85.5t82.5 -32.5q111 0 148 118l51 170l-115 82l-145 -135q-57 -54 -57 -117zM375 1475q-14 76 19.5 118.5t103.5 42.5q72 0 100.5 -46t7.5 -128l-49 -180h-141z M508 1001l115 82l143 -135q59 -53 59 -117q0 -53 -35.5 -85.5t-82.5 -32.5q-111 0 -148 118zM590 1251l45 -135l194 25q125 16 125 123q0 55 -31.5 91t-80.5 36q-51 0 -101 -35z" />
<glyph unicode="+" horiz-adv-x="1175" d="M92 477v307h344v351h314v-351h333v-307h-333v-360h-314v360h-344z" />
<glyph unicode="," horiz-adv-x="622" d="M102 -328l48 545q8 78 52 117t109 39q106 0 157.5 -65.5t16.5 -157.5l-198 -519z" />
<glyph unicode="-" horiz-adv-x="780" d="M82 477v281h616v-281h-616z" />
<glyph unicode="." horiz-adv-x="624" d="M123 174q0 82 51 140.5t137 58.5q88 0 139.5 -54.5t51.5 -142.5q0 -84 -53.5 -140t-141.5 -56q-86 0 -135 53t-49 141z" />
<glyph unicode="/" horiz-adv-x="974" d="M0 -96l653 1726l322 -104l-660 -1737z" />
<glyph unicode="0" horiz-adv-x="1153" d="M47 709q0 371 143.5 546t393.5 175q522 0 522 -717q0 -387 -134 -560t-400.5 -173t-395.5 177t-129 552zM426 688q0 -233 35 -329.5t114.5 -96.5t116.5 98.5t37 348.5q0 242 -35 335t-114 93q-84 0 -119 -96.5t-35 -352.5z" />
<glyph unicode="1" horiz-adv-x="983" d="M102 0v268h226v865h-205v270h586v-1135h223v-268h-830z" />
<glyph unicode="2" horiz-adv-x="1153" d="M45 1116q145 313 528 314q207 0 338 -106.5t131 -299.5q0 -201 -161 -412q-135 -176 -303 -344h485v-268h-987v213q174 168 259 261t197 245q113 154 113 285q0 57 -29.5 87.5t-83.5 30.5q-104 0 -186 -161z" />
<glyph unicode="3" horiz-adv-x="1105" d="M16 113l142 293q145 -119 317 -119q74 0 118 37.5t44 115.5q0 51 -21.5 83t-44 42t-59.5 21q-57 14 -211 14v246q158 0 197 6q61 10 93 53t32 96q0 121 -129 121q-104 0 -199 -125l-262 177q174 256 512 256q211 0 333.5 -94.5t122.5 -262.5q0 -203 -194 -330 q100 -33 156.5 -115.5t56.5 -199.5q0 -201 -140.5 -324.5t-400.5 -123.5q-252 0 -463 133z" />
<glyph unicode="4" horiz-adv-x="1208" d="M51 319v187l561 897h379v-828h166v-262h-168v-313h-381v319h-557zM367 575h241v240q0 109 6 170h-6q-43 -102 -90 -174z" />
<glyph unicode="5" horiz-adv-x="1173" d="M41 123l139 287q180 -123 334 -123q88 0 135 53t47 151.5t-43 140.5t-102 42q-84 0 -166 -74l-281 90v713h895v-281h-593l-13 -227l13 -6q113 86 276 86q188 0 293.5 -121t105.5 -322q0 -244 -140 -398t-409 -154q-280 0 -491 143z" />
<glyph unicode="6" horiz-adv-x="1191" d="M82 635q0 399 163 597t443 198q158 0 248 -51.5t166 -139.5l-203 -197q-90 113 -205 113q-94 0 -149.5 -71.5t-69.5 -198.5q104 70 240 69q199 0 305 -124.5t106 -319.5q0 -238 -137 -384t-383 -146q-524 0 -524 655zM459 530q0 -285 143 -284q74 0 112 68.5t38 185.5 q0 197 -144 196q-76 0 -141 -41q-8 -59 -8 -125z" />
<glyph unicode="7" horiz-adv-x="1075" d="M41 1102v284h1014v-223l-422 -757q-39 -70 -39 -179v-227h-379v223q0 145 61 254l351 625h-586z" />
<glyph unicode="8" horiz-adv-x="1167" d="M61 426q0 94 47.5 186.5t127.5 135.5q-63 39 -98.5 116.5t-35.5 153.5q0 190 138.5 301t353.5 111q229 0 354 -104.5t125 -293.5q0 -88 -36 -167t-93 -128q84 -33 129 -115.5t45 -195.5q0 -201 -137 -323.5t-393 -122.5q-264 0 -395.5 119.5t-131.5 326.5zM453 438 q0 -90 35.5 -142t105.5 -52q63 0 99 51t36 143q0 90 -30.5 126t-102.5 40q-35 2 -104 10q-39 -47 -39 -176zM483 1024q0 -160 95 -168q61 -6 86 -6q31 57 30 176q0 70 -28.5 109t-77.5 39q-45 0 -75 -38t-30 -112z" />
<glyph unicode="9" horiz-adv-x="1198" d="M61 905q0 233 141.5 379t379.5 146q260 0 392 -168t132 -488q0 -403 -150.5 -598.5t-425.5 -195.5q-244 0 -424 112l123 264q150 -94 291 -94q188 0 193 262q-104 -70 -240 -69q-199 0 -305.5 127.5t-106.5 322.5zM436 909q0 -203 144 -202q76 0 141 41q8 59 8 131 q0 291 -143 290q-74 0 -112 -71.5t-38 -188.5z" />
<glyph unicode=":" horiz-adv-x="624" d="M123 174q0 82 51 140.5t137 58.5q88 0 139.5 -54.5t51.5 -142.5q0 -84 -53.5 -140t-141.5 -56q-86 0 -135 53t-49 141zM123 897q0 82 51 140.5t137 58.5q88 0 139.5 -54.5t51.5 -142.5q0 -84 -53.5 -140.5t-141.5 -56.5q-86 0 -135 53.5t-49 141.5z" />
<glyph unicode=";" horiz-adv-x="684" d="M102 -328l48 545q8 78 52 117t109 39q106 0 157.5 -65.5t16.5 -157.5l-198 -519zM182 897q0 82 51.5 140.5t137.5 58.5q88 0 139 -54.5t51 -142.5q0 -84 -53 -140.5t-141 -56.5q-86 0 -135.5 53.5t-49.5 141.5z" />
<glyph unicode="&#x3c;" horiz-adv-x="1175" d="M92 541v219l858 395l129 -283l-489 -219l491 -229l-131 -287z" />
<glyph unicode="=" horiz-adv-x="1175" d="M90 242v305h993v-305h-993zM90 713v305h993v-305h-993z" />
<glyph unicode="&#x3e;" horiz-adv-x="1175" d="M92 424l492 229l-490 219l129 283l858 -395v-219l-858 -404z" />
<glyph unicode="?" horiz-adv-x="960" d="M92 1440q141 37 297 37q250 0 380 -105.5t130 -310.5q0 -143 -88 -252t-272 -160v-198h-377v383q195 16 275.5 70t80.5 149q0 135 -174 135q-94 0 -209 -29zM176 162q0 78 48 132t130 54q84 0 132.5 -50t48.5 -134q0 -80 -46.5 -132t-130.5 -52q-82 0 -132 50t-50 132z " />
<glyph unicode="@" horiz-adv-x="1619" d="M82 356q0 391 244.5 616.5t613.5 225.5q287 0 537 -115v-1022q-195 -72 -414 -71q-236 0 -355.5 90t-119.5 297q0 176 111.5 269t275.5 93q90 0 143 -26v168q-80 25 -166 24q-227 0 -359 -141t-132 -391q0 -242 135 -389.5t391 -147.5q184 0 324 55l75 -294 q-186 -66 -436 -66q-180 0 -327.5 48t-247 129t-167 188.5t-97 223t-29.5 236.5zM946 379q0 -141 137 -141q23 0 35 2v268q-25 6 -47 6q-55 0 -90 -33.5t-35 -101.5z" />
<glyph unicode="A" horiz-adv-x="1329" d="M0 0l422 1473h465l442 -1473h-393l-96 313h-369l-86 -313h-385zM539 575h229l-80 371q-23 94 -35 217h-4q-14 -127 -33 -215z" />
<glyph unicode="B" horiz-adv-x="1288" d="M133 0v1473h539q238 0 371 -99.5t133 -277.5q0 -117 -56.5 -197t-140.5 -117q113 -27 180.5 -119t67.5 -210q0 -217 -145.5 -335t-428.5 -118h-520zM522 266h121q86 0 129 53.5t43 137.5q0 174 -166 174h-127v-365zM522 889h88q76 0 116 44t40 116q0 84 -43 117.5 t-131 33.5h-70v-311z" />
<glyph unicode="C" horiz-adv-x="1261" d="M72 725q0 158 30.5 290t98 245.5t192.5 178t297 64.5q455 0 541 -424l-363 -88q-43 213 -176 213q-211 0 -211 -465q0 -451 310 -450q145 0 339 100l64 -309q-209 -109 -469 -109q-178 0 -310 66.5t-204 179.5t-105.5 240t-33.5 268z" />
<glyph unicode="D" horiz-adv-x="1355" d="M133 0v1473h516q635 0 635 -676q0 -186 -38 -328.5t-99.5 -229.5t-150.5 -142.5t-183 -76t-207 -20.5h-473zM522 274h80q143 0 207.5 112t64.5 378q0 236 -58 332t-189 96h-105v-918z" />
<glyph unicode="E" horiz-adv-x="1183" d="M133 0v1473h967v-293h-578v-289h502v-291h-502v-307h600v-293h-989z" />
<glyph unicode="F" horiz-adv-x="1169" d="M133 0v1473h995v-295h-606v-289h508v-291h-508v-598h-389z" />
<glyph unicode="G" horiz-adv-x="1353" d="M72 760q0 338 156.5 540.5t471.5 202.5q240 0 363 -110.5t168 -313.5l-361 -88q-49 213 -178 213q-211 0 -211 -438q0 -160 19.5 -262.5t81 -171t170.5 -68.5q63 0 118 15v229h-180v278h561v-704q-231 -111 -501 -111q-348 0 -513 189.5t-165 599.5z" />
<glyph unicode="H" horiz-adv-x="1445" d="M133 0v1473h389v-576h402v576h389v-1473h-389v590h-402v-590h-389z" />
<glyph unicode="I" horiz-adv-x="655" d="M133 0v1473h389v-1473h-389z" />
<glyph unicode="J" horiz-adv-x="907" d="M10 49l94 299q106 -41 183 -41q63 0 85.5 35t22.5 109v1022h389v-1029q0 -127 -14 -188q-31 -139 -139.5 -211t-268.5 -72q-213 0 -352 76z" />
<glyph unicode="K" horiz-adv-x="1320" d="M133 0v1473h383v-588h55l310 588h391l-387 -695l446 -778h-418l-331 588h-66v-588h-383z" />
<glyph unicode="L" horiz-adv-x="1140" d="M133 0v1473h389v-1178h578v-295h-967z" />
<glyph unicode="M" horiz-adv-x="1660" d="M59 0l101 1473h409l185 -615q61 -199 82 -313h6q23 145 76 313l188 615h395l88 -1473h-356l-43 825h-8q-29 -133 -49 -200l-150 -492h-299l-152 508q-33 90 -47 184h-10l-49 -825h-367z" />
<glyph unicode="N" horiz-adv-x="1427" d="M133 0v1473h356l340 -664q78 -152 103 -234l4 3q-25 147 -25 258v637h383v-1473h-336l-352 647q-66 117 -106 248l-4 -2q20 -143 20 -277v-616h-383z" />
<glyph unicode="O" horiz-adv-x="1415" d="M72 756q0 354 176 550.5t475 196.5q307 0 463.5 -188.5t156.5 -548.5q0 -795 -643 -795q-628 1 -628 785zM481 754q0 -254 56.5 -367t169.5 -113q109 0 168 106.5t59 383.5q0 238 -57.5 333t-161.5 95q-234 0 -234 -438z" />
<glyph unicode="P" horiz-adv-x="1253" d="M133 0v1473h545q250 0 392 -122t142 -339q0 -240 -150.5 -385.5t-408.5 -145.5h-131v-481h-389zM522 762h86q205 0 205 229q0 100 -49 151.5t-133 51.5h-109v-432z" />
<glyph unicode="Q" horiz-adv-x="1409" d="M72 756q0 354 174 550.5t467 196.5q315 0 472.5 -188.5t157.5 -548.5q0 -252 -107.5 -426t-260.5 -225v-6q193 -45 352 -58l-70 -278q-365 57 -661 168q-123 47 -212 106t-163 153.5t-111.5 233t-37.5 322.5zM481 756q0 -252 60.5 -375t165.5 -123q225 0 225 506 q0 238 -57.5 334t-159.5 96q-234 0 -234 -438z" />
<glyph unicode="R" horiz-adv-x="1302" d="M133 0v1473h539q549 0 549 -416q0 -289 -234 -414l305 -643h-405l-252 563h-113v-563h-389zM522 846h144q72 0 118.5 46t46.5 132q0 100 -43 135t-141 35h-125v-348z" />
<glyph unicode="S" horiz-adv-x="1157" d="M41 100l119 336q201 -141 379 -141q150 0 149 113q0 61 -52 95t-171 72q-94 31 -156.5 62t-125 82t-94.5 127t-32 178q0 219 148.5 349t384.5 130q129 0 228.5 -34.5t158.5 -93t92 -122t47 -135.5l-352 -98q-45 180 -174 180q-61 0 -94 -31.5t-33 -89.5 q0 -70 57.5 -108.5t192.5 -85.5q84 -29 144.5 -59.5t118.5 -81t89 -124t31 -169.5q0 -205 -141.5 -342.5t-395.5 -137.5q-293 0 -518 129z" />
<glyph unicode="T" horiz-adv-x="1224" d="M20 1180v293h1184v-293h-397v-1180h-389v1180h-398z" />
<glyph unicode="U" horiz-adv-x="1357" d="M113 532v941h389v-893q0 -66 4 -107t20.5 -88t55.5 -70.5t100 -23.5q49 0 83 16.5t51.5 39t26.5 66.5t11 77.5t2 93.5v889h389v-943q0 -268 -128 -409t-441 -141q-563 -1 -563 552z" />
<glyph unicode="V" horiz-adv-x="1345" d="M10 1473h404l213 -818q41 -156 51 -286h6q16 158 55 303l213 801h383l-452 -1473h-426z" />
<glyph unicode="W" horiz-adv-x="1730" d="M31 1473h375l83 -588q25 -164 25 -332l6 -2l197 790h305l186 -792l6 2q0 154 25 321l86 601h375l-236 -1473h-358l-158 530q-59 190 -80 326h-6q-25 -152 -80 -334l-159 -522h-359z" />
<glyph unicode="X" horiz-adv-x="1333" d="M0 0l451 739l-431 734h449l205 -402l215 402h444l-456 -744l430 -729h-428l-217 399l-211 -399h-451z" />
<glyph unicode="Y" horiz-adv-x="1363" d="M0 1473h428l174 -396q51 -111 86 -243h8q23 115 70 223l174 416h424l-483 -910v-563h-389v557z" />
<glyph unicode="Z" horiz-adv-x="1220" d="M41 0v221l653 971h-616v281h1102v-242l-648 -944h623v-287h-1114z" />
<glyph unicode="[" horiz-adv-x="710" d="M113 -299v1958h598v-234h-238v-1491h238v-233h-598z" />
<glyph unicode="\" horiz-adv-x="974" d="M0 1526l322 104l653 -1726l-316 -115z" />
<glyph unicode="]" horiz-adv-x="710" d="M0 -66h238v1491h-238v234h598v-1958h-598v233z" />
<glyph unicode="^" horiz-adv-x="1196" d="M14 600l392 815h237l389 -815l-311 -47l-199 448l-198 -446z" />
<glyph unicode="_" d="M-14 -172h1052v-254h-1052v254z" />
<glyph unicode="`" d="M254 1382l108 234l414 -225l-90 -193z" />
<glyph unicode="a" horiz-adv-x="1140" d="M41 332q0 385 428 385q70 0 160 -21v15q0 137 -191 137q-125 0 -274 -47l-35 264q59 23 180 40t219 17q246 0 352.5 -103.5t106.5 -359.5v-335q0 -88 62 -88q16 0 51 10l30 -217q-98 -49 -204 -49q-172 0 -238 122q-72 -61 -137.5 -91.5t-167.5 -30.5q-166 0 -254 98 t-88 254zM408 371q0 -125 98 -125q35 0 70.5 21.5t52.5 47.5v162q-43 25 -94 25q-127 0 -127 -131z" />
<glyph unicode="b" horiz-adv-x="1142" d="M92 74v1399h377v-414q102 63 240 63q170 0 271 -117.5t101 -375.5q0 -303 -137 -477.5t-424 -174.5q-113 0 -232.5 30t-195.5 67zM469 285q27 -25 90 -25q80 0 109.5 73t29.5 249q0 129 -27.5 188t-90.5 59q-25 0 -52.5 -6t-44.5 -12l-14 -6v-520z" />
<glyph unicode="c" horiz-adv-x="978" d="M51 553q0 113 26.5 209t83 180t161 132t245.5 48q176 0 279.5 -89t132.5 -242l-309 -97q-14 68 -36 100.5t-75 32.5q-117 0 -117 -249q0 -145 47.5 -221t159.5 -76q121 0 260 71l19 -307q-158 -70 -342 -70q-150 0 -258.5 50.5t-167 137.5t-84 183t-25.5 207z" />
<glyph unicode="d" horiz-adv-x="1157" d="M51 549q0 244 112.5 408.5t323.5 164.5q119 0 187 -43v394h381v-1473h-336l-14 80q-76 -100 -244 -100q-186 0 -298 145t-112 424zM444 549q0 -283 140 -283q55 0 92 25v530q-43 29 -90 29q-142 0 -142 -301z" />
<glyph unicode="e" horiz-adv-x="1026" d="M51 565q0 276 136.5 416.5t342.5 140.5q444 0 445 -522v-123h-543q8 -102 66.5 -149t138.5 -47q141 0 297 86l16 -312q-145 -78 -350 -78q-549 0 -549 588zM434 690h195q0 170 -97 170q-98 0 -98 -170z" />
<glyph unicode="f" horiz-adv-x="786" d="M0 842v262h147q0 182 105.5 288.5t318.5 106.5q174 0 287 -47l-27 -258q-98 33 -180 33q-76 0 -101.5 -23.5t-25.5 -99.5h250v-262h-250v-842h-377v842h-147z" />
<glyph unicode="g" horiz-adv-x="1155" d="M51 549q0 240 109.5 406.5t310.5 166.5q154 0 238 -88l20 70h324v-1104q0 -205 -115 -338t-365 -133q-254 0 -428 78l54 311q139 -82 313 -82q80 0 126 35t46 131v74q-61 -82 -225 -82q-186 0 -297 138t-111 417zM442 549q0 -141 33 -204.5t107 -63.5q55 0 92 24v506 q-49 33 -96 33q-63 0 -99.5 -60.5t-36.5 -234.5z" />
<glyph unicode="h" horiz-adv-x="1169" d="M102 0v1473h381v-426q123 76 271 75q268 0 305 -245q8 -55 8 -140v-737h-379v690q0 41 -2 55q-8 68 -78 68q-63 0 -125 -39v-774h-381z" />
<glyph unicode="i" horiz-adv-x="583" d="M82 1393q0 100 57.5 153t149.5 53q100 0 156.5 -52t56.5 -152q0 -98 -58.5 -150.5t-152.5 -52.5t-151.5 54.5t-57.5 146.5zM102 0v1104h379v-1104h-379z" />
<glyph unicode="j" horiz-adv-x="585" d="M-233 -414l53 303q106 -45 188 -45q47 0 70.5 23.5t23.5 89.5v1147h381v-1172q0 -188 -100 -295.5t-303 -107.5q-182 0 -313 57zM82 1393q0 100 57.5 153t149.5 53q100 0 156.5 -52t56.5 -152q0 -98 -58.5 -150.5t-152.5 -52.5t-151.5 54.5t-57.5 146.5z" />
<glyph unicode="k" horiz-adv-x="1222" d="M102 0v1473h381v-705h62l217 338l397 -41l-289 -424l353 -641h-426l-246 453h-68v-453h-381z" />
<glyph unicode="l" horiz-adv-x="718" d="M92 330v1143h381v-1090q0 -96 76 -96q49 0 115 30l45 -282q-125 -57 -277 -58q-188 0 -264 91.5t-76 261.5z" />
<glyph unicode="m" horiz-adv-x="1751" d="M102 0v1104h330l17 -80q125 98 296 98q168 0 254 -106q152 106 328 106q276 0 313 -245q8 -55 9 -140v-737h-379v690q0 41 -2 55q-8 68 -78 68q-57 0 -123 -39v-774h-379v690q0 41 -2 55q-8 68 -78 68q-57 0 -125 -39v-774h-381z" />
<glyph unicode="n" horiz-adv-x="1169" d="M102 0v1104h330l17 -80q133 98 296 98q276 0 314 -245q8 -55 8 -140v-737h-379v690q0 41 -2 55q-8 68 -78 68q-57 0 -125 -39v-774h-381z" />
<glyph unicode="o" horiz-adv-x="1120" d="M51 547q0 256 133 415.5t387 159.5q498 0 498 -559q0 -256 -127 -423t-393 -167q-135 0 -234.5 47.5t-156 130t-82 181t-25.5 215.5zM442 549q0 -152 25 -217.5t92 -65.5q66 0 92.5 73t26.5 214q0 143 -23.5 210.5t-89.5 67.5q-72 0 -97.5 -68.5t-25.5 -213.5z" />
<glyph unicode="p" horiz-adv-x="1144" d="M102 -428v1532h351l14 -72q12 10 33.5 25.5t92.5 40t144 24.5q160 0 258.5 -118.5t98.5 -374.5q0 -301 -99.5 -475t-302.5 -174q-147 0 -215 63v-471h-375zM483 287q29 -25 92 -25q80 0 110 77t30 253q0 125 -29 174t-90 49l-113 -24v-504z" />
<glyph unicode="q" horiz-adv-x="1157" d="M51 549q0 244 110.5 408.5t311.5 164.5q158 0 238 -88l20 70h324v-1532h-365v500q-8 -10 -23.5 -25.5t-75 -41t-130.5 -25.5q-186 0 -298 145t-112 424zM444 549q0 -283 140 -283q55 0 92 25v520q-49 33 -90 33q-68 0 -105 -60.5t-37 -234.5z" />
<glyph unicode="r" horiz-adv-x="802" d="M102 0v1104h330l23 -109q98 127 225 127q61 0 123 -20l-51 -346q-55 18 -117 18q-82 0 -152 -45v-729h-381z" />
<glyph unicode="s" horiz-adv-x="978" d="M29 94l102 295q59 -53 161.5 -93t166.5 -40q82 0 82 61q0 33 -36 55.5t-89.5 34t-115.5 35t-115.5 55t-89.5 98.5t-36 159q0 178 132.5 273t324.5 95q369 0 440 -286l-294 -80q-29 98 -121 98q-37 0 -61.5 -16.5t-24.5 -46.5q0 -37 49 -60.5t118.5 -43t140.5 -51.5 t120 -106.5t49 -189.5q0 -158 -121 -261.5t-338 -103.5q-133 0 -258 37t-186 82z" />
<glyph unicode="t" horiz-adv-x="800" d="M0 842v262h143v188l381 170v-358h213v-262h-213v-445q0 -55 18.5 -82.5t69.5 -27.5q55 0 123 30l45 -282q-119 -57 -293 -58q-344 0 -344 336v529h-143z" />
<glyph unicode="u" horiz-adv-x="1173" d="M102 367v698l383 39v-690q0 -41 2 -56q8 -68 78 -67q57 0 125 39v774h381v-1104h-330l-16 78q-133 -98 -297 -98q-281 0 -317 247q-9 56 -9 140z" />
<glyph unicode="v" horiz-adv-x="1116" d="M6 1067l397 35l129 -580q23 -106 31 -237h8q2 111 29 229l127 592l383 -39l-313 -1067h-455z" />
<glyph unicode="w" horiz-adv-x="1501" d="M16 1065l383 39l74 -467q12 -76 25 -207l6 -2q8 113 33 207l88 418h270l88 -410q29 -133 39 -219l6 2q4 125 19 215l69 463l369 -39l-225 -1065h-394l-80 356q-23 106 -32 203h-4q-10 -92 -37 -197l-92 -362h-377z" />
<glyph unicode="x" horiz-adv-x="1126" d="M0 0l346 547l-330 518l416 39l137 -264l160 264l395 -39l-354 -510l356 -555h-405l-156 256l-149 -256h-416z" />
<glyph unicode="y" horiz-adv-x="1118" d="M-143 -385l94 301q143 -72 229 -72q72 0 117 55.5t92 178.5l-395 989l401 37l140 -481q33 -106 43 -203h6q55 195 161 684l373 -39q-160 -563 -342 -993q-41 -96 -73.5 -165t-84 -145.5t-104.5 -124t-127 -78t-160 -30.5q-214 0 -370 86z" />
<glyph unicode="z" d="M51 0v231l459 611h-434v262h897v-215l-471 -621h454v-268h-905z" />
<glyph unicode="{" horiz-adv-x="786" d="M61 594v207q86 0 119 39t33 123v352q0 168 86 256t244 88q131 0 223 -43l-37 -230q-43 14 -74 15q-96 0 -96 -92v-363q0 -182 -143 -250q143 -68 143 -247v-392q0 -104 96 -104q37 0 74 10l37 -229q-92 -43 -223 -43q-158 0 -244 88t-86 256v397q0 84 -35 123t-117 39z " />
<glyph unicode="|" horiz-adv-x="557" d="M113 -242v1813h331v-1813h-331z" />
<glyph unicode="}" horiz-adv-x="786" d="M20 -266l37 229q37 -10 74 -10q96 0 96 104v392q0 180 144 247q-143 68 -144 250v363q0 92 -96 92q-31 0 -74 -15l-37 230q92 43 224 43q158 0 243.5 -88t85.5 -256v-352q0 -84 33 -123t119 -39v-207q-82 0 -117 -39t-35 -123v-397q0 -168 -86 -256t-243 -88 q-132 0 -224 43z" />
<glyph unicode="~" horiz-adv-x="1302" d="M-59 559q45 59 76.5 97t80.5 82t106.5 65.5t121.5 21.5q90 0 241.5 -75.5t225.5 -75.5q106 0 211 145l219 -184q-141 -260 -392 -260q-88 0 -178 35.5t-162.5 71.5t-117.5 36q-55 0 -103.5 -37t-111.5 -108z" />
<glyph unicode="&#xa1;" horiz-adv-x="561" d="M82 -373l39 1024h315l43 -1024h-397zM102 938q0 80 46.5 132t130.5 52q82 0 132 -50t50 -132q0 -78 -48 -132t-130 -54q-84 0 -132.5 50t-48.5 134z" />
<glyph unicode="&#xa2;" horiz-adv-x="1153" d="M139 659q0 193 72 334.5t227 196.5v172h348v-162q221 -61 269 -311l-310 -82q-14 61 -35.5 90t-68.5 29q-59 0 -84 -64.5t-27 -193.5q0 -131 22.5 -195.5t82.5 -64.5q92 0 121 124l299 -88q-47 -248 -269 -311v-188h-348v196q-154 53 -226.5 192.5t-72.5 325.5z" />
<glyph unicode="&#xa3;" horiz-adv-x="1204" d="M102 586v243h125q-45 119 -45 197q0 180 132 292t362 112q367 0 475 -338l-317 -109q-55 147 -158 147q-53 0 -84 -30.5t-31 -89.5q0 -61 49 -181h357v-241h-283q20 -86 21 -139q0 -96 -74 -185h534v-264h-1005l-27 221q98 27 149.5 91.5t51.5 133.5q0 59 -27 140h-205z " />
<glyph unicode="&#xa4;" horiz-adv-x="1243" d="M82 338l131 127q-74 123 -74 252q0 139 74 252q-20 20 -67.5 66t-63.5 63l145 143l144 -135q121 66 247 65q125 0 248 -67q23 20 74 70.5t68 66.5l147 -143l-131 -129q80 -125 80 -252q0 -133 -80 -252q25 -23 75 -71t58 -56l-149 -145l-142 133q-117 -63 -248 -64 q-129 0 -247 66q-23 -20 -75 -70.5t-69 -64.5zM403 716.5q0 -108.5 61.5 -173t156.5 -64.5q90 0 152.5 65.5t62.5 172.5q0 111 -62.5 174t-152.5 63q-94 0 -156 -64.5t-62 -173z" />
<glyph unicode="&#xa5;" horiz-adv-x="1153" d="M-43 1403h428l199 -518l190 518h424l-305 -606h162v-293h-279v-504h-389v504h-276v293h153z" />
<glyph unicode="&#xa6;" horiz-adv-x="561" d="M113 -242v836h336v-836h-336zM113 809v762h336v-762h-336z" />
<glyph unicode="&#xa7;" horiz-adv-x="1220" d="M41 -111l246 213q49 -68 109.5 -114.5t109.5 -46.5q35 0 59.5 19.5t24.5 59.5q0 63 -42 130t-208 278q-133 170 -188.5 279.5t-55.5 253.5q0 246 156 390t414 144q109 0 194.5 -25.5t144 -73.5t89 -84t65.5 -89l-248 -174q-96 143 -174 143q-33 0 -59.5 -20.5 t-26.5 -55.5t16.5 -69.5t37 -61.5t73.5 -88q168 -195 223 -279q131 -203 132 -413q0 -254 -151 -415t-417 -161q-193 0 -331 86t-193 174zM350 995q0 -88 50.5 -182t122 -183t143 -183.5t122 -213t50.5 -241.5q0 -49 -4 -76h16q49 127 49 229q0 113 -51 225.5t-124 206 t-147.5 182.5t-129 189.5t-58.5 192.5l-12 2q-27 -80 -27 -148z" />
<glyph unicode="&#xa8;" d="M98 1389q0 84 48.5 130t125.5 46q180 0 181 -176q0 -84 -50.5 -130.5t-130 -46.5t-127 47.5t-47.5 129.5zM571 1389q0 84 48.5 130t125.5 46q180 0 181 -176q0 -84 -50.5 -130.5t-130 -46.5t-127 47.5t-47.5 129.5z" />
<glyph unicode="&#xa9;" horiz-adv-x="1802" d="M113 723q0 334 219 553t559 219q350 0 574.5 -217t224.5 -543q0 -342 -223.5 -559t-575.5 -217q-356 0 -567 213t-211 551zM317 723q0 -258 162 -423t414 -165q262 0 428 162t166 426q0 260 -168 427t-426 167q-260 0 -418 -165t-158 -429zM500 723q0 219 115.5 343 t293.5 124q113 0 201 -51.5t137 -134.5l-137 -103q-45 57 -86 83t-104 26q-102 0 -157.5 -79t-55.5 -202q0 -127 57 -206t154 -79q66 0 113.5 26t101.5 79l106 -141q-143 -139 -330 -140q-111 0 -194.5 42t-127.5 113t-65.5 145.5t-21.5 154.5z" />
<glyph unicode="&#xaa;" horiz-adv-x="827" d="M41 920q0 270 301 270q72 0 131 -14v10q0 88 -133 88q-98 0 -213 -37l-18 195q41 16 133 28.5t161 12.5q176 0 259 -74t83 -250v-461h-247l-11 53q-68 -68 -206 -67q-117 0 -178.5 68.5t-61.5 177.5zM319 946q0 -80 68 -80q55 0 86 47v103q-27 16 -65 16q-89 0 -89 -86z " />
<glyph unicode="&#xab;" horiz-adv-x="1341" d="M20 586l461 483l209 -221l-260 -256l272 -273l-213 -217zM618 586l461 483l209 -221l-260 -256l272 -273l-213 -217z" />
<glyph unicode="&#xac;" horiz-adv-x="1175" d="M113 510v301h940v-614h-293v313h-647z" />
<glyph unicode="&#xad;" horiz-adv-x="780" d="M82 477v281h616v-281h-616z" />
<glyph unicode="&#xae;" horiz-adv-x="1802" d="M113 723q0 334 219 553t559 219q350 0 574.5 -217t224.5 -543q0 -342 -223.5 -559t-575.5 -217q-356 0 -567 213t-211 551zM317 723q0 -258 162 -423t414 -165q262 0 428 162t166 426q0 260 -168 427t-426 167q-260 0 -418 -165t-158 -429zM614 301v870h314 q319 0 319 -247q0 -178 -170 -254l176 -369h-215l-143 340h-90v-340h-191zM805 799h67q84 0 126 22.5t42 96.5q0 61 -34.5 80.5t-104.5 19.5h-96v-219z" />
<glyph unicode="&#xaf;" d="M182 1270v252h678v-252h-678z" />
<glyph unicode="&#xb0;" horiz-adv-x="618" d="M53 1228.5q0 114.5 76 192.5t188 78q121 0 193 -75.5t72 -182.5q0 -121 -77 -202t-194 -81q-119 0 -188.5 78t-69.5 192.5zM223 1229q0 -49 24.5 -81t69.5 -32t70 33t25 80q0 49 -25 79.5t-70 30.5q-94 1 -94 -110z" />
<glyph unicode="&#xb1;" horiz-adv-x="1175" d="M90 -2v305h348v236h-344v307h344v350h314v-350h333v-307h-333v-236h331v-305h-993z" />
<glyph unicode="&#xb2;" horiz-adv-x="819" d="M63 1489q45 94 136.5 149.5t222.5 55.5q137 0 226 -71t89 -193q0 -113 -71 -211q-84 -113 -199 -218h281v-217h-642v185q129 113 250 248q102 117 103 182q0 72 -80 71q-72 0 -125 -98z" />
<glyph unicode="&#xb3;" horiz-adv-x="819" d="M55 854l90 203q92 -72 195 -72q111 0 111 84q0 90 -103 90h-110v170h98q106 0 106 80q0 72 -75 72q-72 0 -131 -80l-168 127q39 74 126 120t203 46q137 0 224.5 -62.5t87.5 -179.5q0 -70 -42 -125t-102 -76q156 -41 156 -198q0 -123 -96.5 -203t-270.5 -80 q-168 0 -299 84z" />
<glyph unicode="&#xb4;" d="M246 1391l418 227l104 -236l-432 -184z" />
<glyph unicode="&#xb5;" horiz-adv-x="1261" d="M102 -385v1503h375v-737q0 -152 113 -152q68 0 99.5 37t31.5 133v719h377v-817q0 -80 55 -80q23 0 45 8l23 -211q-92 -39 -205 -38q-70 0 -125 34.5t-80 89.5q-66 -125 -207 -124q-53 0 -93 25.5t-54 62.5v-453h-355z" />
<glyph unicode="&#xb6;" horiz-adv-x="1347" d="M162 1030q0 227 153.5 335t370.5 108h543l-21 -291h-155v-1082q0 -209 -117 -340t-377 -131q-217 0 -373 60l54 311q127 -59 272 -59q84 0 128 41t44 141v463q-231 0 -376.5 108.5t-145.5 335.5z" />
<glyph unicode="&#xb7;" horiz-adv-x="645" d="M133 768q0 82 51.5 140.5t137.5 58.5q88 0 139 -54.5t51 -142.5q0 -84 -53 -140.5t-142 -56.5q-86 0 -135 53.5t-49 141.5z" />
<glyph unicode="&#xb8;" d="M291 -530l35 151q51 -16 100 -16q37 0 64.5 19.5t27.5 56.5q0 66 -78 65q-35 0 -84 -10v147q74 18 158 19q104 0 160.5 -56.5t56.5 -138.5q0 -133 -88 -196.5t-209 -63.5q-75 0 -143 23z" />
<glyph unicode="&#xb9;" horiz-adv-x="819" d="M104 788v189h162v510h-151v190h432v-700h168v-189h-611z" />
<glyph unicode="&#xba;" horiz-adv-x="835" d="M41 1079q0 176 96 287t289 111q369 0 369 -385q0 -176 -93.5 -295t-291.5 -119q-195 0 -282 115.5t-87 285.5zM334 1075q0 -104 17.5 -148t64.5 -44t65.5 50t18.5 154q0 96 -16.5 141.5t-63.5 45.5q-49 0 -67.5 -49.5t-18.5 -149.5z" />
<glyph unicode="&#xbb;" horiz-adv-x="1341" d="M41 319l272 273l-260 256l209 221l461 -483l-469 -484zM639 319l272 273l-260 256l209 221l461 -483l-469 -484z" />
<glyph unicode="&#xbc;" horiz-adv-x="2082" d="M123 584v188h162v510h-152v191h432v-701h168v-188h-610zM641 0l526 1473h330l-528 -1473h-328zM1239 203v129l358 575h304v-530h106v-178h-106v-187h-263v191h-399zM1462 377h176v180q0 59 9 133h-13q-20 -63 -67 -135z" />
<glyph unicode="&#xbd;" horiz-adv-x="2082" d="M88 584v188h162v510h-152v191h432v-701h168v-188h-610zM612 0l527 1473h329l-528 -1473h-328zM1300 721q45 94 136.5 149.5t222.5 55.5q137 0 226 -71t89 -193q0 -113 -71 -211q-84 -113 -199 -218h281v-217h-642v185q129 113 250 248q102 117 103 182q0 72 -80 71 q-72 0 -125 -98z" />
<glyph unicode="&#xbe;" horiz-adv-x="2082" d="M115 649l90 203q94 -72 194 -72q111 0 111 84q0 90 -102 90h-111v170h98q106 0 107 80q0 72 -76 72q-74 0 -131 -80l-168 127q39 74 126 120t204 46q137 0 224 -62.5t87 -179.5q0 -70 -42 -125t-101 -75q156 -41 155 -199q0 -123 -96 -203t-270 -80q-168 0 -299 84z M641 0l526 1473h330l-528 -1473h-328zM1237 201v129l358 575h303v-530h107v-178h-107v-187h-262v191h-399zM1460 375h176v180q0 59 9 133h-13q-20 -63 -67 -135z" />
<glyph unicode="&#xbf;" horiz-adv-x="960" d="M61 41q0 143 88.5 251.5t272.5 160.5v198h377v-383q-195 -16 -276 -70.5t-81 -148.5q0 -135 174 -135q94 0 209 29l43 -281q-141 -37 -297 -37q-250 0 -380 105.5t-130 310.5zM426 938q0 80 46 132t130 52q82 0 132 -50t50 -132q0 -78 -48 -132t-130 -54q-84 0 -132 50 t-48 134z" />
<glyph unicode="&#xc0;" horiz-adv-x="1329" d="M0 0l422 1473h465l442 -1473h-393l-96 313h-369l-86 -313h-385zM406 1694l77 248l439 -170l-66 -203zM539 575h229l-80 371q-23 94 -35 217h-4q-14 -127 -33 -215z" />
<glyph unicode="&#xc1;" horiz-adv-x="1329" d="M0 0l422 1473h465l442 -1473h-393l-96 313h-369l-86 -313h-385zM406 1772l438 170l78 -248l-451 -125zM539 575h229l-80 371q-23 94 -35 217h-4q-14 -127 -33 -215z" />
<glyph unicode="&#xc2;" horiz-adv-x="1329" d="M0 0l422 1473h465l442 -1473h-393l-96 313h-369l-86 -313h-385zM311 1679l226 226h274l207 -234l-148 -121l-202 140l-211 -140zM539 575h229l-80 371q-23 94 -35 217h-4q-14 -127 -33 -215z" />
<glyph unicode="&#xc3;" horiz-adv-x="1329" d="M0 0l422 1473h465l442 -1473h-393l-96 313h-369l-86 -313h-385zM350 1829q29 27 88.5 48t108.5 21q47 0 137 -28.5t139 -28.5q78 0 138 37l18 -242q-59 -33 -148 -32q-49 0 -142 23.5t-126 23.5q-92 0 -176 -54zM539 575h229l-80 371q-23 94 -35 217h-4 q-14 -127 -33 -215z" />
<glyph unicode="&#xc4;" horiz-adv-x="1329" d="M0 0l422 1473h465l442 -1473h-393l-96 313h-369l-86 -313h-385zM250 1774q0 84 48 130t126 46q180 0 180 -176q0 -84 -50 -130.5t-130 -46.5t-127 47.5t-47 129.5zM539 575h229l-80 371q-23 94 -35 217h-4q-14 -127 -33 -215zM723 1774q0 84 48 130t126 46 q180 0 180 -176q0 -84 -50 -130.5t-130 -46.5t-127 47.5t-47 129.5z" />
<glyph unicode="&#xc5;" horiz-adv-x="1318" d="M-6 0l436 1470q-37 66 -37 148q0 115 76 192.5t188 77.5q121 0 193 -75.5t72 -182.5q0 -92 -50 -168l451 -1462h-393l-96 313h-369l-86 -313h-385zM532 575h230l-80 345q-23 94 -35 217h-4q-14 -127 -33 -215zM563 1618q0 -49 24.5 -81t69.5 -32t70 33t25 80q0 49 -25 80 t-70 31q-94 0 -94 -111z" />
<glyph unicode="&#xc6;" horiz-adv-x="1871" d="M0 0l598 1477h1190v-293h-578v-293h502v-291h-502v-307h600v-293h-989v340h-305l-131 -340h-385zM600 616h221v601h-4q-16 -72 -82 -246z" />
<glyph unicode="&#xc7;" horiz-adv-x="1261" d="M72 725q0 158 30.5 290t98 245.5t192.5 178t297 64.5q455 0 541 -424l-363 -88q-43 213 -176 213q-211 0 -211 -465q0 -451 310 -450q145 0 339 100l64 -309q-209 -109 -469 -109q-178 0 -310 66.5t-204 179.5t-105.5 240t-33.5 268zM494 -530l34 151q51 -16 101 -16 q37 0 64.5 19.5t27.5 56.5q0 66 -78 65q-35 0 -84 -10v147q74 18 158 19q104 0 160.5 -56.5t56.5 -138.5q0 -133 -88 -196.5t-209 -63.5q-75 0 -143 23z" />
<glyph unicode="&#xc8;" horiz-adv-x="1183" d="M133 0v1473h967v-293h-578v-289h502v-291h-502v-307h600v-293h-989zM334 1694l78 248l438 -170l-66 -203z" />
<glyph unicode="&#xc9;" horiz-adv-x="1183" d="M133 0v1473h967v-293h-578v-289h502v-291h-502v-307h600v-293h-989zM385 1772l438 170l78 -248l-450 -125z" />
<glyph unicode="&#xca;" horiz-adv-x="1183" d="M133 0v1473h967v-293h-578v-289h502v-291h-502v-307h600v-293h-989zM270 1679l226 226h274l207 -234l-148 -121l-202 140l-211 -140z" />
<glyph unicode="&#xcb;" horiz-adv-x="1183" d="M133 0v1473h967v-293h-578v-289h502v-291h-502v-307h600v-293h-989zM211 1774q0 84 48 130t126 46q180 0 180 -176q0 -84 -50 -130.5t-130 -46.5t-127 47.5t-47 129.5zM684 1774q0 84 48 130t126 46q180 0 180 -176q0 -84 -50 -130.5t-130 -46.5t-127 47.5t-47 129.5z " />
<glyph unicode="&#xcc;" horiz-adv-x="655" d="M70 1694l77 248l439 -170l-66 -203zM133 0v1473h389v-1473h-389z" />
<glyph unicode="&#xcd;" horiz-adv-x="655" d="M70 1772l438 170l78 -248l-451 -125zM133 0v1473h389v-1473h-389z" />
<glyph unicode="&#xce;" horiz-adv-x="655" d="M-25 1679l226 226h274l207 -234l-147 -121l-203 140l-211 -140zM133 0v1473h389v-1473h-389z" />
<glyph unicode="&#xcf;" horiz-adv-x="655" d="M-86 1774q0 84 48 130t126 46q180 0 180 -176q0 -84 -50 -130.5t-130 -46.5t-127 47.5t-47 129.5zM133 0v1473h389v-1473h-389zM387 1774q0 84 48 130t126 46q180 0 180 -176q0 -84 -50 -130.5t-130 -46.5t-127 47.5t-47 129.5z" />
<glyph unicode="&#xd0;" horiz-adv-x="1400" d="M51 596v281h127v596h516q635 0 635 -676q0 -186 -38 -328.5t-99.5 -229.5t-150.5 -142.5t-183 -76t-207 -20.5h-473v596h-127zM567 274h80q143 0 208 112t65 378q0 236 -58.5 332t-189.5 96h-105v-315h158v-281h-158v-322z" />
<glyph unicode="&#xd1;" horiz-adv-x="1427" d="M133 0v1473h356l340 -664q78 -152 103 -234l4 3q-25 147 -25 258v637h383v-1473h-336l-352 647q-66 117 -106 248l-4 -2q20 -143 20 -277v-616h-383zM428 1829q29 27 88 48t109 21q47 0 137 -28.5t139 -28.5q78 0 137 37l19 -242q-59 -33 -148 -32q-49 0 -142 23.5 t-126 23.5q-92 0 -176 -54z" />
<glyph unicode="&#xd2;" horiz-adv-x="1415" d="M72 756q0 354 176 550.5t475 196.5q307 0 463.5 -188.5t156.5 -548.5q0 -795 -643 -795q-628 1 -628 785zM449 1694l77 248l439 -170l-66 -203zM481 754q0 -254 56.5 -367t169.5 -113q109 0 168 106.5t59 383.5q0 238 -57.5 333t-161.5 95q-234 0 -234 -438z" />
<glyph unicode="&#xd3;" horiz-adv-x="1415" d="M72 756q0 354 176 550.5t475 196.5q307 0 463.5 -188.5t156.5 -548.5q0 -795 -643 -795q-628 1 -628 785zM481 754q0 -254 56.5 -367t169.5 -113q109 0 168 106.5t59 383.5q0 238 -57.5 333t-161.5 95q-234 0 -234 -438zM500 1772l438 170l78 -248l-451 -125z" />
<glyph unicode="&#xd4;" horiz-adv-x="1415" d="M72 756q0 354 176 550.5t475 196.5q307 0 463.5 -188.5t156.5 -548.5q0 -795 -643 -795q-628 1 -628 785zM371 1679l225 226h274l207 -234l-147 -121l-203 140l-211 -140zM481 754q0 -254 56.5 -367t169.5 -113q109 0 168 106.5t59 383.5q0 238 -57.5 333t-161.5 95 q-234 0 -234 -438z" />
<glyph unicode="&#xd5;" horiz-adv-x="1415" d="M72 756q0 354 176 550.5t475 196.5q307 0 463.5 -188.5t156.5 -548.5q0 -795 -643 -795q-628 1 -628 785zM393 1829q29 27 88.5 48t108.5 21t139 -28.5t137 -28.5q78 0 138 37l18 -242q-59 -33 -148 -32q-49 0 -142 23.5t-126 23.5q-92 0 -176 -54zM481 754 q0 -254 56.5 -367t169.5 -113q109 0 168 106.5t59 383.5q0 238 -57.5 333t-161.5 95q-234 0 -234 -438z" />
<glyph unicode="&#xd6;" horiz-adv-x="1415" d="M72 756q0 354 176 550.5t475 196.5q307 0 463.5 -188.5t156.5 -548.5q0 -795 -643 -795q-628 1 -628 785zM313 1774q0 84 48.5 130t125.5 46q180 0 181 -176q0 -84 -50.5 -130.5t-130 -46.5t-127 47.5t-47.5 129.5zM481 754q0 -254 56.5 -367t169.5 -113q109 0 168 106.5 t59 383.5q0 238 -57.5 333t-161.5 95q-234 0 -234 -438zM786 1774q0 84 48.5 130t126.5 46q180 0 180 -176q0 -84 -50.5 -130.5t-130 -46.5t-127 47.5t-47.5 129.5z" />
<glyph unicode="&#xd7;" horiz-adv-x="1175" d="M14 315l328 330l-324 334l236 221l334 -336l338 334l223 -223l-324 -328l330 -334l-229 -217l-344 336l-346 -338z" />
<glyph unicode="&#xd8;" horiz-adv-x="1415" d="M72 756q0 354 176 550.5t475 196.5q72 0 135 -12l88 178l307 -143l-94 -183q184 -184 184 -577q0 -795 -643 -795q-66 0 -114 9l-105 -207l-295 143l95 195q-209 188 -209 645zM481 754q0 -254 56.5 -367t169.5 -113q109 0 168 106.5t59 383.5q0 238 -57.5 333t-161.5 95 q-234 0 -234 -438z" />
<glyph unicode="&#xd9;" horiz-adv-x="1357" d="M113 532v941h389v-893q0 -66 4 -107t20.5 -88t55.5 -70.5t100 -23.5q49 0 83 16.5t51.5 39t26.5 66.5t11 77.5t2 93.5v889h389v-943q0 -268 -128 -409t-441 -141q-563 -1 -563 552zM420 1694l78 248l438 -170l-66 -203z" />
<glyph unicode="&#xda;" horiz-adv-x="1357" d="M113 532v941h389v-893q0 -66 4 -107t20.5 -88t55.5 -70.5t100 -23.5q49 0 83 16.5t51.5 39t26.5 66.5t11 77.5t2 93.5v889h389v-943q0 -268 -128 -409t-441 -141q-563 -1 -563 552zM469 1772l438 170l78 -248l-450 -125z" />
<glyph unicode="&#xdb;" horiz-adv-x="1357" d="M113 532v941h389v-893q0 -66 4 -107t20.5 -88t55.5 -70.5t100 -23.5q49 0 83 16.5t51.5 39t26.5 66.5t11 77.5t2 93.5v889h389v-943q0 -268 -128 -409t-441 -141q-563 -1 -563 552zM326 1679l225 226h274l207 -234l-147 -121l-203 140l-211 -140z" />
<glyph unicode="&#xdc;" horiz-adv-x="1357" d="M113 532v941h389v-893q0 -66 4 -107t20.5 -88t55.5 -70.5t100 -23.5q49 0 83 16.5t51.5 39t26.5 66.5t11 77.5t2 93.5v889h389v-943q0 -268 -128 -409t-441 -141q-563 -1 -563 552zM264 1774q0 84 48 130t126 46q180 0 180 -176q0 -84 -50 -130.5t-130 -46.5t-127 47.5 t-47 129.5zM737 1774q0 84 48.5 130t125.5 46q180 0 181 -176q0 -84 -50.5 -130.5t-130.5 -46.5t-127 47.5t-47 129.5z" />
<glyph unicode="&#xdd;" horiz-adv-x="1363" d="M0 1473h428l174 -396q51 -111 86 -243h8q23 115 70 223l174 416h424l-483 -910v-563h-389v557zM461 1772l438 170l78 -248l-451 -125z" />
<glyph unicode="&#xde;" horiz-adv-x="1253" d="M133 0v1477h389v-226h156q254 0 394 -112.5t140 -325.5q0 -240 -149.5 -378t-409.5 -138h-131v-297h-389zM522 578h86q205 0 205 219q0 96 -47 136t-135 40h-109v-395z" />
<glyph unicode="&#xdf;" horiz-adv-x="1349" d="M102 0v1055q0 223 131.5 331.5t346.5 108.5q121 0 209 -30.5t138 -78t78.5 -123t37 -146t8.5 -167.5v-186q102 -27 174.5 -113t72.5 -225q0 -197 -114.5 -321.5t-327.5 -124.5q-152 0 -268 49l59 280q68 -31 139 -30q53 0 88 34.5t35 96.5q0 162 -235 161v527 q0 127 -92 127q-102 0 -103 -140v-1085h-377z" />
<glyph unicode="&#xe0;" horiz-adv-x="1140" d="M41 332q0 385 428 385q70 0 160 -21v15q0 137 -191 137q-125 0 -274 -47l-35 264q59 23 180 40t219 17q246 0 352.5 -103.5t106.5 -359.5v-335q0 -88 62 -88q16 0 51 10l30 -217q-98 -49 -204 -49q-172 0 -238 122q-72 -61 -137.5 -91.5t-167.5 -30.5q-166 0 -254 98 t-88 254zM264 1382l109 234l413 -225l-90 -193zM408 371q0 -125 98 -125q35 0 70.5 21.5t52.5 47.5v162q-43 25 -94 25q-127 0 -127 -131z" />
<glyph unicode="&#xe1;" horiz-adv-x="1140" d="M41 332q0 385 428 385q70 0 160 -21v15q0 137 -191 137q-125 0 -274 -47l-35 264q59 23 180 40t219 17q246 0 352.5 -103.5t106.5 -359.5v-335q0 -88 62 -88q16 0 51 10l30 -217q-98 -49 -204 -49q-172 0 -238 122q-72 -61 -137.5 -91.5t-167.5 -30.5q-166 0 -254 98 t-88 254zM303 1391l418 227l104 -236l-432 -184zM408 371q0 -125 98 -125q35 0 70.5 21.5t52.5 47.5v162q-43 25 -94 25q-127 0 -127 -131z" />
<glyph unicode="&#xe2;" horiz-adv-x="1140" d="M41 332q0 385 428 385q70 0 160 -21v15q0 137 -191 137q-125 0 -274 -47l-35 264q59 23 180 40t219 17q246 0 352.5 -103.5t106.5 -359.5v-335q0 -88 62 -88q16 0 51 10l30 -217q-98 -49 -204 -49q-172 0 -238 122q-72 -61 -137.5 -91.5t-167.5 -30.5q-166 0 -254 98 t-88 254zM158 1352l241 252h275l219 -258l-150 -150l-215 180l-223 -180zM408 371q0 -125 98 -125q35 0 70.5 21.5t52.5 47.5v162q-43 25 -94 25q-127 0 -127 -131z" />
<glyph unicode="&#xe3;" horiz-adv-x="1140" d="M41 332q0 385 428 385q70 0 160 -21v15q0 137 -191 137q-125 0 -274 -47l-35 264q59 23 180 40t219 17q246 0 352.5 -103.5t106.5 -359.5v-335q0 -88 62 -88q16 0 51 10l30 -217q-98 -49 -204 -49q-172 0 -238 122q-72 -61 -137.5 -91.5t-167.5 -30.5q-166 0 -254 98 t-88 254zM199 1481q29 27 88 48t108 21q47 0 137.5 -28.5t139.5 -28.5q78 0 137 37l18 -242q-59 -33 -147 -33q-49 0 -142.5 24t-125.5 24q-92 0 -176 -54zM408 371q0 -125 98 -125q35 0 70.5 21.5t52.5 47.5v162q-43 25 -94 25q-127 0 -127 -131z" />
<glyph unicode="&#xe4;" horiz-adv-x="1140" d="M41 332q0 385 428 385q70 0 160 -21v15q0 137 -191 137q-125 0 -274 -47l-35 264q59 23 180 40t219 17q246 0 352.5 -103.5t106.5 -359.5v-335q0 -88 62 -88q16 0 51 10l30 -217q-98 -49 -204 -49q-172 0 -238 122q-72 -61 -137.5 -91.5t-167.5 -30.5q-166 0 -254 98 t-88 254zM117 1389q0 84 48 130t126 46q180 0 180 -176q0 -84 -50 -130.5t-130 -46.5t-127 47.5t-47 129.5zM408 371q0 -125 98 -125q35 0 70.5 21.5t52.5 47.5v162q-43 25 -94 25q-127 0 -127 -131zM590 1389q0 84 48 130t126 46q180 0 180 -176q0 -84 -50 -130.5 t-130 -46.5t-127 47.5t-47 129.5z" />
<glyph unicode="&#xe5;" horiz-adv-x="1140" d="M41 332q0 385 428 385q70 0 160 -21v15q0 137 -191 137q-125 0 -274 -47l-35 264q59 23 180 40t219 17q246 0 352.5 -103.5t106.5 -359.5v-335q0 -88 62 -88q16 0 51 10l30 -217q-98 -49 -204 -49q-172 0 -238 122q-72 -61 -137.5 -91.5t-167.5 -30.5q-166 0 -254 98 t-88 254zM274 1478.5q0 114.5 78 192.5t195 78q125 0 198.5 -75t73.5 -183q0 -121 -77.5 -202t-200.5 -81q-125 0 -196 78t-71 192.5zM408 371q0 -125 98 -125q35 0 70.5 21.5t52.5 47.5v162q-43 25 -94 25q-127 0 -127 -131zM453 1479q0 -49 24.5 -81t69.5 -32t69.5 33 t24.5 80q0 49 -24.5 79.5t-69.5 30.5q-94 1 -94 -110z" />
<glyph unicode="&#xe6;" horiz-adv-x="1579" d="M41 332q0 385 428 385q70 0 160 -21v15q0 137 -191 137q-125 0 -274 -47l-27 266q150 55 383 55q227 0 303 -129q111 129 289 129q207 0 311.5 -136t104.5 -386v-123h-543q8 -102 66.5 -148t138.5 -46q141 0 297 86l16 -312q-145 -78 -350 -77q-238 0 -369 135 q-170 -135 -352 -135q-201 0 -296 96t-95 256zM408 371q0 -61 31.5 -93t82.5 -32q80 0 135 59q-23 78 -26 172q-43 25 -96 25q-127 0 -127 -131zM987 690h195q0 170 -97 170q-98 0 -98 -170z" />
<glyph unicode="&#xe7;" horiz-adv-x="978" d="M51 553q0 113 26.5 209t83 180t161 132t245.5 48q176 0 279.5 -89t132.5 -242l-309 -97q-14 68 -36 100.5t-75 32.5q-117 0 -117 -249q0 -145 47.5 -221t159.5 -76q121 0 260 71l19 -307q-158 -70 -342 -70q-150 0 -258.5 50.5t-167 137.5t-84 183t-25.5 207zM322 -528 l34 151q51 -16 101 -16q37 0 64.5 19.5t27.5 56.5q0 66 -78 65q-35 0 -84 -10v147q74 18 158 19q104 0 160.5 -56.5t56.5 -138.5q0 -133 -88 -196.5t-209 -63.5q-75 0 -143 23z" />
<glyph unicode="&#xe8;" horiz-adv-x="1026" d="M51 565q0 276 136.5 416.5t342.5 140.5q444 0 445 -522v-123h-543q8 -102 66.5 -149t138.5 -47q141 0 297 86l16 -312q-145 -78 -350 -78q-549 0 -549 588zM293 1382l108 234l414 -225l-90 -193zM434 690h195q0 170 -97 170q-98 0 -98 -170z" />
<glyph unicode="&#xe9;" horiz-adv-x="1026" d="M51 565q0 276 136.5 416.5t342.5 140.5q444 0 445 -522v-123h-543q8 -102 66.5 -149t138.5 -47q141 0 297 86l16 -312q-145 -78 -350 -78q-549 0 -549 588zM315 1391l418 227l105 -236l-432 -184zM434 690h195q0 170 -97 170q-98 0 -98 -170z" />
<glyph unicode="&#xea;" horiz-adv-x="1026" d="M51 565q0 276 136.5 416.5t342.5 140.5q444 0 445 -522v-123h-543q8 -102 66.5 -149t138.5 -47q141 0 297 86l16 -312q-145 -78 -350 -78q-549 0 -549 588zM168 1352l242 252h274l219 -258l-149 -150l-215 180l-224 -180zM434 690h195q0 170 -97 170q-98 0 -98 -170z" />
<glyph unicode="&#xeb;" horiz-adv-x="1026" d="M51 565q0 276 136.5 416.5t342.5 140.5q444 0 445 -522v-123h-543q8 -102 66.5 -149t138.5 -47q141 0 297 86l16 -312q-145 -78 -350 -78q-549 0 -549 588zM129 1389q0 84 48 130t126 46q180 0 180 -176q0 -84 -50 -130.5t-130 -46.5t-127 47.5t-47 129.5zM434 690h195 q0 170 -97 170q-98 0 -98 -170zM602 1389q0 84 48 130t126 46q180 0 180 -176q0 -84 -50 -130.5t-130 -46.5t-127 47.5t-47 129.5z" />
<glyph unicode="&#xec;" horiz-adv-x="583" d="M27 1382l108 234l414 -225l-90 -193zM102 0v1104h379v-1104h-379z" />
<glyph unicode="&#xed;" horiz-adv-x="583" d="M20 1391l418 227l105 -236l-432 -184zM102 0v1104h379v-1104h-379z" />
<glyph unicode="&#xee;" horiz-adv-x="583" d="M-76 1352l242 252h274l219 -258l-149 -150l-215 180l-223 -180zM102 0v1104h379v-1104h-379z" />
<glyph unicode="&#xef;" horiz-adv-x="583" d="M-121 1389q0 84 48 130t126 46q180 0 180 -176q0 -84 -50 -130.5t-130 -46.5t-127 47.5t-47 129.5zM102 0v1104h379v-1104h-379zM352 1389q0 84 48.5 130t125.5 46q180 0 181 -176q0 -84 -50.5 -130.5t-130.5 -46.5t-127 47.5t-47 129.5z" />
<glyph unicode="&#xf0;" horiz-adv-x="1067" d="M18 514q0 223 124 361.5t313 138.5q104 0 186 -51q-66 231 -448 243l51 267q211 -4 370 -76l131 135l195 -170l-117 -119q205 -225 205 -625q0 -645 -520 -645q-242 0 -366 151.5t-124 389.5zM406 518q0 -135 24.5 -200.5t97.5 -65.5q76 0 102.5 80t26.5 229 q0 94 -12 170q-41 27 -104 27q-66 0 -100.5 -67t-34.5 -173z" />
<glyph unicode="&#xf1;" horiz-adv-x="1169" d="M102 0v1104h330l17 -80q133 98 296 98q276 0 314 -245q8 -55 8 -140v-737h-379v690q0 41 -2 55q-8 68 -78 68q-57 0 -125 -39v-774h-381zM266 1481q29 27 88.5 48t108.5 21t139 -28.5t137 -28.5q78 0 138 37l18 -242q-59 -33 -147 -33q-49 0 -142.5 24t-126.5 24 q-92 0 -176 -54z" />
<glyph unicode="&#xf2;" horiz-adv-x="1120" d="M51 547q0 256 133 415.5t387 159.5q498 0 498 -559q0 -256 -127 -423t-393 -167q-135 0 -234.5 47.5t-156 130t-82 181t-25.5 215.5zM313 1382l109 234l414 -225l-91 -193zM442 549q0 -152 25 -217.5t92 -65.5q66 0 92.5 73t26.5 214q0 143 -23.5 210.5t-89.5 67.5 q-72 0 -97.5 -68.5t-25.5 -213.5z" />
<glyph unicode="&#xf3;" horiz-adv-x="1120" d="M51 547q0 256 133 415.5t387 159.5q498 0 498 -559q0 -256 -127 -423t-393 -167q-135 0 -234.5 47.5t-156 130t-82 181t-25.5 215.5zM365 1391l417 227l105 -236l-432 -184zM442 549q0 -152 25 -217.5t92 -65.5q66 0 92.5 73t26.5 214q0 143 -23.5 210.5t-89.5 67.5 q-72 0 -97.5 -68.5t-25.5 -213.5z" />
<glyph unicode="&#xf4;" horiz-adv-x="1120" d="M51 547q0 256 133 415.5t387 159.5q498 0 498 -559q0 -256 -127 -423t-393 -167q-135 0 -234.5 47.5t-156 130t-82 181t-25.5 215.5zM199 1352l241 252h275l219 -258l-150 -150l-215 180l-223 -180zM442 549q0 -152 25 -217.5t92 -65.5q66 0 92.5 73t26.5 214 q0 143 -23.5 210.5t-89.5 67.5q-72 0 -97.5 -68.5t-25.5 -213.5z" />
<glyph unicode="&#xf5;" horiz-adv-x="1120" d="M51 547q0 256 133 415.5t387 159.5q498 0 498 -559q0 -256 -127 -423t-393 -167q-135 0 -234.5 47.5t-156 130t-82 181t-25.5 215.5zM248 1481q29 27 88 48t108 21q47 0 137.5 -28.5t139.5 -28.5q78 0 137 37l19 -242q-59 -33 -148 -33q-49 0 -142 24t-126 24 q-92 0 -176 -54zM442 549q0 -152 25 -217.5t92 -65.5q66 0 92.5 73t26.5 214q0 143 -23.5 210.5t-89.5 67.5q-72 0 -97.5 -68.5t-25.5 -213.5z" />
<glyph unicode="&#xf6;" horiz-adv-x="1120" d="M51 547q0 256 133 415.5t387 159.5q498 0 498 -559q0 -256 -127 -423t-393 -167q-135 0 -234.5 47.5t-156 130t-82 181t-25.5 215.5zM154 1389q0 84 48 130t126 46q180 0 180 -176q0 -84 -50 -130.5t-130 -46.5t-127 47.5t-47 129.5zM442 549q0 -152 25 -217.5t92 -65.5 q66 0 92.5 73t26.5 214q0 143 -23.5 210.5t-89.5 67.5q-72 0 -97.5 -68.5t-25.5 -213.5zM627 1389q0 84 48 130t126 46q180 0 180 -176q0 -84 -50 -130.5t-130 -46.5t-127 47.5t-47 129.5z" />
<glyph unicode="&#xf7;" horiz-adv-x="1175" d="M90 477v305h993v-305h-993zM426 205q0 70 43 121t119 51t120 -47t44 -123q0 -74 -45 -124t-121 -50t-118 47t-42 125zM426 1071q0 70 43 121t119 51t120 -47t44 -123q0 -74 -45 -124t-121 -50t-118 47t-42 125z" />
<glyph unicode="&#xf8;" horiz-adv-x="1120" d="M51 547q0 256 133 415.5t387 159.5q59 0 117 -10l88 182l260 -123l-94 -190q127 -141 127 -418q0 -256 -127 -423t-393 -167q-68 0 -123 13l-94 -195l-256 115l104 217q-129 152 -129 424zM442 549q0 -152 25 -217.5t92 -65.5q66 0 92.5 73t26.5 214q0 143 -23.5 210.5 t-89.5 67.5q-72 0 -97.5 -68.5t-25.5 -213.5z" />
<glyph unicode="&#xf9;" horiz-adv-x="1173" d="M102 367v698l383 39v-690q0 -41 2 -56q8 -68 78 -67q57 0 125 39v774h381v-1104h-330l-16 78q-133 -98 -297 -98q-281 0 -317 247q-9 56 -9 140zM344 1382l109 234l413 -225l-90 -193z" />
<glyph unicode="&#xfa;" horiz-adv-x="1173" d="M102 367v698l383 39v-690q0 -41 2 -56q8 -68 78 -67q57 0 125 39v774h381v-1104h-330l-16 78q-133 -98 -297 -98q-281 0 -317 247q-9 56 -9 140zM369 1391l417 227l105 -236l-432 -184z" />
<glyph unicode="&#xfb;" horiz-adv-x="1173" d="M102 367v698l383 39v-690q0 -41 2 -56q8 -68 78 -67q57 0 125 39v774h381v-1104h-330l-16 78q-133 -98 -297 -98q-281 0 -317 247q-9 56 -9 140zM236 1352l241 252h275l219 -258l-150 -150l-215 180l-223 -180z" />
<glyph unicode="&#xfc;" horiz-adv-x="1173" d="M102 367v698l383 39v-690q0 -41 2 -56q8 -68 78 -67q57 0 125 39v774h381v-1104h-330l-16 78q-133 -98 -297 -98q-281 0 -317 247q-9 56 -9 140zM178 1389q0 84 48 130t126 46q180 0 180 -176q0 -84 -50 -130.5t-130 -46.5t-127 47.5t-47 129.5zM651 1389q0 84 48.5 130 t125.5 46q180 0 181 -176q0 -84 -50.5 -130.5t-130.5 -46.5t-127 47.5t-47 129.5z" />
<glyph unicode="&#xfd;" horiz-adv-x="1118" d="M-143 -385l94 301q143 -72 229 -72q72 0 117 55.5t92 178.5l-395 989l401 37l140 -481q33 -106 43 -203h6q55 195 161 684l373 -39q-160 -563 -342 -993q-41 -96 -73.5 -165t-84 -145.5t-104.5 -124t-127 -78t-160 -30.5q-214 0 -370 86zM375 1391l418 227l104 -236 l-432 -184z" />
<glyph unicode="&#xfe;" horiz-adv-x="1144" d="M102 -428v1905h369v-445q12 10 32.5 25.5t90.5 40t143 24.5q160 0 258.5 -118.5t98.5 -374.5q0 -301 -99.5 -475t-302.5 -174q-147 0 -215 63v-471h-375zM483 287q29 -25 92 -25q80 0 110 77t30 253q0 125 -29 174t-90 49l-113 -24v-504z" />
<glyph unicode="&#xff;" horiz-adv-x="1118" d="M-143 -385l94 301q143 -72 229 -72q72 0 117 55.5t92 178.5l-395 989l401 37l140 -481q33 -106 43 -203h6q55 195 161 684l373 -39q-160 -563 -342 -993q-41 -96 -73.5 -165t-84 -145.5t-104.5 -124t-127 -78t-160 -30.5q-214 0 -370 86zM172 1389q0 84 48 130t126 46 q180 0 180 -176q0 -84 -50 -130.5t-130 -46.5t-127 47.5t-47 129.5zM645 1389q0 84 48 130t126 46q180 0 180 -176q0 -84 -50 -130.5t-130 -46.5t-127 47.5t-47 129.5z" />
<glyph unicode="&#x152;" horiz-adv-x="1931" d="M72 756q0 356 162.5 547.5t453.5 191.5q98 0 180 -18h979v-293h-633q51 -119 64 -293h494v-291h-498q-14 -182 -72 -307h668v-293h-1006q-82 -20 -186 -20q-287 0 -446.5 178t-159.5 598zM481 756q0 -256 50.5 -370t150.5 -114q102 0 152.5 105.5t50.5 386.5 q0 242 -48.5 337t-146.5 95q-100 0 -154.5 -99t-54.5 -341z" />
<glyph unicode="&#x153;" horiz-adv-x="1644" d="M51 553q0 248 129 408.5t363 160.5q205 0 315 -133q53 61 136 97t177 36q211 0 316.5 -135t105.5 -387v-123h-542q8 -102 66.5 -148t137.5 -46q141 0 297 86l17 -312q-145 -78 -334 -77q-258 0 -373 149q-113 -150 -346 -149q-125 0 -218 49t-145.5 134t-77 182 t-24.5 208zM442 549q0 -150 25 -213.5t92 -63.5q66 0 92.5 72t26.5 221q0 135 -23.5 200.5t-89.5 65.5q-72 0 -97.5 -68.5t-25.5 -213.5zM1053 690h194q0 170 -96 170q-98 0 -98 -170z" />
<glyph unicode="&#x178;" horiz-adv-x="1363" d="M0 1473h428l174 -396q51 -111 86 -243h8q23 115 70 223l174 416h424l-483 -910v-563h-389v557zM289 1774q0 84 48 130t126 46q180 0 180 -176q0 -84 -50 -130.5t-130 -46.5t-127 47.5t-47 129.5zM762 1774q0 84 48 130t126 46q180 0 180 -176q0 -84 -50 -130.5 t-130 -46.5t-127 47.5t-47 129.5z" />
<glyph unicode="&#x2c6;" d="M143 1352l242 252h274l220 -258l-150 -150l-215 180l-223 -180z" />
<glyph unicode="&#x2dc;" d="M197 1481q29 27 88 48t108 21t139.5 -28.5t137.5 -28.5q78 0 137 37l18 -242q-59 -33 -147 -33q-49 0 -142.5 24t-125.5 24q-92 0 -177 -54z" />
<glyph unicode="&#x2000;" horiz-adv-x="974" />
<glyph unicode="&#x2001;" horiz-adv-x="1949" />
<glyph unicode="&#x2002;" horiz-adv-x="974" />
<glyph unicode="&#x2003;" horiz-adv-x="1949" />
<glyph unicode="&#x2004;" horiz-adv-x="649" />
<glyph unicode="&#x2005;" horiz-adv-x="487" />
<glyph unicode="&#x2006;" horiz-adv-x="323" />
<glyph unicode="&#x2007;" horiz-adv-x="323" />
<glyph unicode="&#x2008;" horiz-adv-x="243" />
<glyph unicode="&#x2009;" horiz-adv-x="389" />
<glyph unicode="&#x200a;" horiz-adv-x="106" />
<glyph unicode="&#x2010;" horiz-adv-x="780" d="M82 477v281h616v-281h-616z" />
<glyph unicode="&#x2011;" horiz-adv-x="780" d="M82 477v281h616v-281h-616z" />
<glyph unicode="&#x2012;" horiz-adv-x="780" d="M82 477v281h616v-281h-616z" />
<glyph unicode="&#x2013;" d="M0 422v280h1024v-280h-1024z" />
<glyph unicode="&#x2014;" horiz-adv-x="2048" d="M0 422v280h2048v-280h-2048z" />
<glyph unicode="&#x2018;" horiz-adv-x="518" d="M100 1178l107 424l184 -15l23 -440q4 -80 -36 -132t-124 -52q-92 0 -134.5 62.5t-19.5 152.5z" />
<glyph unicode="&#x2019;" horiz-adv-x="518" d="M104 1417q-4 80 36 132.5t128 52.5q90 0 131 -62.5t19 -153.5l-107 -423l-180 14z" />
<glyph unicode="&#x201a;" horiz-adv-x="528" d="M115 127q-4 80 35.5 132t128.5 52q90 0 131 -62.5t18 -152.5l-106 -424l-183 21z" />
<glyph unicode="&#x201c;" horiz-adv-x="940" d="M100 1178l107 424l184 -15l23 -440q4 -80 -36 -132t-124 -52q-92 0 -134.5 62.5t-19.5 152.5zM522 1178l107 424l184 -15l23 -440q4 -80 -36 -132t-124 -52q-92 0 -134.5 62.5t-19.5 152.5z" />
<glyph unicode="&#x201d;" horiz-adv-x="940" d="M104 1417q-4 80 36 132.5t128 52.5q90 0 131 -62.5t19 -153.5l-107 -423l-180 14zM526 1417q-4 80 36 132.5t128 52.5q90 0 131 -62.5t19 -153.5l-107 -423l-180 14z" />
<glyph unicode="&#x201e;" horiz-adv-x="985" d="M115 127q-4 80 35.5 132t128.5 52q90 0 131 -62.5t18 -152.5l-106 -424l-183 21zM571 127q-4 80 36 132t128 52q90 0 131 -62.5t19 -152.5l-107 -424l-182 21z" />
<glyph unicode="&#x2022;" horiz-adv-x="876" d="M164 729q0 129 77.5 211t196.5 82q121 0 198 -82t77 -211t-77 -210t-198 -81t-197.5 79t-76.5 212z" />
<glyph unicode="&#x2026;" horiz-adv-x="1703" d="M82 174q0 82 51 140.5t137 58.5q88 0 139.5 -54.5t51.5 -142.5q0 -84 -53.5 -140t-141.5 -56q-86 0 -135 53t-49 141zM668 174q0 82 51 140.5t137 58.5q88 0 139.5 -54.5t51.5 -142.5q0 -84 -53.5 -140t-141.5 -56q-86 0 -135 53t-49 141zM1243 174q0 82 51.5 140.5 t137.5 58.5q88 0 139 -54.5t51 -142.5q0 -84 -53 -140t-142 -56q-86 0 -135 53t-49 141z" />
<glyph unicode="&#x202f;" horiz-adv-x="389" />
<glyph unicode="&#x2039;" horiz-adv-x="702" d="M0 586l461 483l209 -221l-260 -256l272 -273l-213 -217z" />
<glyph unicode="&#x203a;" horiz-adv-x="702" d="M20 319l273 273l-260 256l209 221l460 -483l-469 -484z" />
<glyph unicode="&#x205f;" horiz-adv-x="487" />
<glyph unicode="&#x20ac;" horiz-adv-x="1191" d="M41 569v269h143q10 115 42 213t91.5 187t164 140.5t241.5 51.5q92 0 166 -27t117 -61.5t78.5 -91t49 -92.5t29.5 -87l-323 -86q-16 74 -47 105.5t-86 31.5q-147 0 -152 -284h334v-269h-332q10 -301 170 -301q100 0 170 142l274 -164q-154 -266 -444 -266q-494 0 -539 589 h-147z" />
<glyph unicode="&#x2122;" horiz-adv-x="1769" d="M31 1278v195h708v-195h-237v-651h-234v651h-237zM801 627l59 846h246l111 -340q35 -117 49 -189h4q12 78 45 189l112 340h238l53 -846h-221l-18 329q-4 49 -4 121h-7q-6 -53 -32 -127l-82 -243h-178l-93 262q-16 45 -26 110h-4q0 -20 -2 -65t-2 -56l-23 -331h-225z" />
<glyph unicode="&#xe000;" horiz-adv-x="1105" d="M0 1105h1105v-1105h-1105v1105z" />
<glyph unicode="&#xfb01;" horiz-adv-x="1247" d="M0 842v262h147q0 180 118 285.5t347 105.5q84 0 190.5 -13.5t158.5 -33.5l-27 -258q-98 33 -242 33q-84 0 -126 -23.5t-42 -95.5h621v-1104h-379v842h-242v-842h-377v842h-147z" />
<glyph unicode="&#xfb02;" horiz-adv-x="1406" d="M0 842v262h147q0 182 136.5 286.5t404.5 104.5q244 0 473 -80v-1030q0 -96 76 -96q49 0 115 30l45 -282q-125 -57 -277 -57q-188 0 -264 91t-76 261v885q-53 8 -90 8q-82 0 -124 -24.5t-42 -96.5h160v-262h-160v-842h-377v842h-147z" />
<glyph unicode="&#xfb03;" horiz-adv-x="1865" d="M0 842v262h147q0 182 105.5 288.5t318.5 106.5q88 0 177 -20l-31 -258q-47 10 -90 10q-53 0 -78 -26.5t-25 -100.5h242q0 180 117.5 285.5t347.5 105.5q84 0 190.5 -13.5t157.5 -33.5l-27 -258q-98 33 -241 33q-84 0 -126 -23.5t-42 -95.5h620v-1104h-379v842h-241v-842 h-377v842h-242v-842h-377v842h-147z" />
<glyph unicode="&#xfb04;" horiz-adv-x="2025" d="M0 842v262h147q0 182 105.5 288.5t318.5 106.5q88 0 177 -20l-31 -258q-47 10 -90 10q-53 0 -78 -26.5t-25 -100.5h242q0 182 136 286.5t405 104.5q244 0 473 -80v-1030q0 -96 75 -96q49 0 115 30l45 -282q-125 -57 -276 -57q-188 0 -264 91t-76 261v885q-53 8 -90 8 q-82 0 -124 -24.5t-42 -96.5h160v-262h-160v-842h-377v842h-242v-842h-377v842h-147z" />
</font>
</defs>
</svg>
