<?xml version="1.0" standalone="no"?>
<!DOCTYPE svg PUBLIC "-//W3C//DTD SVG 1.1//EN" "http://www.w3.org/Graphics/SVG/1.1/DTD/svg11.dtd" >
<svg xmlns="http://www.w3.org/2000/svg">
<metadata>
This is a custom SVG webfont generated by Font Squirrel.
Copyright   : Copyright c 2006 by typetogether All rights reserved
Designer    : Veronika Burian Jose Scaglione
Foundry     : typetogether
Foundry URL : wwwtypetogethercom
</metadata>
<defs>
<font id="RonniaHeavyRegular" horiz-adv-x="1171" >
<font-face units-per-em="2048" ascent="1638" descent="-410" />
<missing-glyph horiz-adv-x="245" />
<glyph unicode=" "  horiz-adv-x="245" />
<glyph unicode="&#x09;" horiz-adv-x="245" />
<glyph unicode="&#xa0;" horiz-adv-x="245" />
<glyph unicode="!" horiz-adv-x="577" d="M61 1475h451l-41 -1014h-362zM88 176q0 86 52.5 146.5t144.5 60.5q94 0 146 -56.5t52 -146.5q0 -88 -51 -145.5t-143 -57.5t-146.5 54.5t-54.5 144.5z" />
<glyph unicode="&#x22;" horiz-adv-x="829" d="M33 1487h334l-35 -524h-260zM459 1487h334l-35 -524h-262z" />
<glyph unicode="#" horiz-adv-x="1460" d="M31 348l98 277h207l39 131h-209l86 280h211l98 328h301l-98 -328h141l101 328h299l-97 -328h219l-90 -280h-219l-39 -131h228l-97 -277h-221l-102 -348h-305l104 348h-139l-103 -348h-303l103 348h-213zM635 625h145l41 131h-147z" />
<glyph unicode="$" horiz-adv-x="1179" d="M74 143l174 326q182 -129 313 -129q76 0 76 66q0 37 -37 59t-147 63q-84 33 -140.5 65t-109.5 82t-79 122.5t-26 171.5q0 150 80 260t223 172v201h400v-197q250 -74 303 -352l-365 -109q-27 164 -127 164q-33 0 -58.5 -20.5t-25.5 -63.5q0 -57 42 -89t155 -81 q70 -31 106.5 -48.5t93 -55t85 -75.5t51 -99.5t22.5 -135.5q0 -145 -67.5 -256.5t-198.5 -165.5v-227h-401v201q-170 22 -342 151z" />
<glyph unicode="%" horiz-adv-x="2101" d="M47 1026q0 215 113.5 331t285.5 116q180 0 285 -113t105 -330t-107.5 -337t-286.5 -120q-182 0 -288.5 122t-106.5 331zM385 1022q0 -98 10.5 -147.5t44.5 -49.5q57 0 58 195q0 55 -1 81.5t-5.5 62.5t-16.5 50.5t-31 14.5q-59 0 -59 -207zM618 0l474 1473h370l-475 -1473 h-369zM1266 426q0 215 113.5 330.5t285.5 115.5q180 0 284.5 -112.5t104.5 -329.5t-107.5 -337t-285.5 -120q-182 0 -288.5 122t-106.5 331zM1604 422q0 -98 10 -147.5t43 -49.5q59 0 59 195q0 55 -1 81.5t-5 62.5t-16.5 50.5t-30.5 14.5q-59 0 -59 -207z" />
<glyph unicode="&#x26;" horiz-adv-x="1505" d="M41 420q0 98 26.5 175t78 129t88 78.5t96.5 61.5q-90 127 -90 246q0 164 110.5 265.5t341.5 101.5q215 0 333 -88.5t118 -247.5q0 -137 -90 -275l-314 174q12 41 13 68q0 53 -52 53q-49 0 -49 -59q0 -47 80 -135q391 -428 762 -795l-270 -266q-119 90 -230 205 q-184 -129 -418 -129q-276 0 -405 122.5t-129 315.5zM502 440q0 -55 35.5 -91t93.5 -36q78 0 133 41q-68 61 -101.5 97t-103.5 122q-57 -67 -57 -133z" />
<glyph unicode="'" horiz-adv-x="403" d="M33 1487h334l-35 -524h-260z" />
<glyph unicode="(" horiz-adv-x="729" d="M61 705q0 211 75 472t208 500l375 -149q-119 -252 -180.5 -443.5t-61.5 -386.5q0 -207 58.5 -394t173.5 -431l-365 -174q-135 223 -209 489.5t-74 516.5z" />
<glyph unicode=")" horiz-adv-x="729" d="M10 -150q117 250 178.5 441.5t61.5 388.5q0 209 -58.5 395.5t-173.5 429.5l365 172q137 -223 211 -488t74 -515q0 -211 -75 -472t-208 -503z" />
<glyph unicode="*" horiz-adv-x="1052" d="M51 1257q0 57 34 95.5t85 38.5t106 -37l158 -103l-47 -141l-203 25q-133 20 -133 122zM180 827q0 -55 38 -90t87 -35q115 0 156 125l53 181l-121 86l-151 -144q-62 -57 -62 -123zM408 1475q-14 82 21.5 126t107.5 44q74 0 104.5 -48.5t9.5 -134.5l-51 -188h-149z M539 1008l120 86l150 -144q63 -57 63 -123q0 -55 -37.5 -90t-86.5 -35q-115 0 -156 125zM621 1251l47 -141l202 25q131 16 131 129q0 57 -32.5 95t-83.5 38q-55 0 -107 -37z" />
<glyph unicode="+" d="M82 453v348h336v342h352v-342h320v-348h-320v-351h-352v351h-336z" />
<glyph unicode="," horiz-adv-x="598" d="M78 -322l39 547q6 86 55 130t123 44q96 0 153.5 -48t57.5 -122q0 -35 -17 -77l-204 -519z" />
<glyph unicode="-" horiz-adv-x="763" d="M74 455v317h616v-317h-616z" />
<glyph unicode="." horiz-adv-x="585" d="M86 193q0 88 55.5 151.5t149.5 63.5q96 0 151.5 -58.5t55.5 -154.5q0 -92 -57.5 -153.5t-153.5 -61.5q-94 0 -147.5 58.5t-53.5 154.5z" />
<glyph unicode="/" horiz-adv-x="1017" d="M0 -86l653 1726l365 -116l-660 -1739z" />
<glyph unicode="0" d="M39 709q0 371 147.5 546t405.5 175q541 0 541 -717q0 -387 -139.5 -560t-413.5 -173q-272 0 -406.5 180t-134.5 549zM469 688q0 -217 26.5 -304t88.5 -87q63 0 90.5 89t27.5 323q0 227 -25.5 309t-88.5 82q-66 0 -92.5 -86t-26.5 -326z" />
<glyph unicode="1" horiz-adv-x="1013" d="M98 0v303h219v793h-198v305h633v-1098h217v-303h-871z" />
<glyph unicode="2" horiz-adv-x="1183" d="M43 0v225q127 119 188.5 178.5t142.5 149.5t156 192q61 86 84 135.5t23 110.5q0 98 -94 99q-53 0 -87 -38t-67 -122l-334 178q152 319 549 319q215 0 350.5 -107.5t135.5 -303.5q0 -176 -160 -389q-117 -156 -303 -326h483v-301h-1067z" />
<glyph unicode="3" horiz-adv-x="1126" d="M12 115l160 329q168 -117 330 -116q131 0 131 104q0 41 -19.5 68.5t-41 39t-56.5 21.5q-55 16 -221 17v274q152 0 207 6q39 4 79 34t40 83q0 106 -113 106q-96 0 -182 -112l-295 202q147 258 526 259q213 0 345 -95.5t132 -273.5q0 -106 -54 -193.5t-136 -134.5 q96 -31 151.5 -110.5t55.5 -190.5q0 -201 -143.5 -326.5t-413.5 -125.5q-261 0 -482 135z" />
<glyph unicode="4" horiz-adv-x="1239" d="M45 297v219l553 887h428v-819h162v-293h-164v-291h-434v297h-545zM399 584h191v192q0 104 6 150h-10q-68 -168 -187 -342z" />
<glyph unicode="5" horiz-adv-x="1204" d="M27 127l157 322q193 -123 336 -123q154 0 154 161q0 66 -32 106t-87 40q-63 0 -137 -55l-316 100v725h930v-313h-592v-195q115 78 256 78q197 0 306.5 -119t109.5 -317q0 -246 -144.5 -401.5t-422.5 -155.5q-293 0 -518 147z" />
<glyph unicode="6" horiz-adv-x="1216" d="M76 637q0 399 168 596t461 197q88 0 158.5 -15.5t122.5 -48.5t79 -56.5t65 -64.5l-223 -223q-29 31 -50 49.5t-58 33.5t-82 15q-166 0 -193 -215q100 55 221 56q199 0 305.5 -125t106.5 -320q0 -242 -141.5 -389t-401.5 -147q-538 0 -538 657zM508 520q0 -121 22.5 -181 t81.5 -60q117 0 117 227q0 86 -25.5 127t-85.5 41q-45 0 -104 -19q-6 -74 -6 -135z" />
<glyph unicode="7" horiz-adv-x="1097" d="M41 1081v320h1042v-252l-415 -743q-35 -59 -35 -166v-240h-430v236q0 145 63 256l332 589h-557z" />
<glyph unicode="8" horiz-adv-x="1187" d="M55 430q0 92 47.5 185.5t126.5 132.5q-61 35 -98 112.5t-37 149.5q0 195 143.5 307.5t368.5 112.5q238 0 368 -106.5t130 -297.5q0 -88 -36 -166t-91 -121q82 -31 127 -113.5t45 -197.5q0 -201 -141.5 -324.5t-407.5 -123.5q-276 0 -410.5 121.5t-134.5 328.5zM502 446 q0 -172 104 -172q98 0 99 170q0 78 -21.5 108t-77.5 38q-31 4 -88 8q-16 -35 -16 -152zM530 1016q0 -135 62 -144q39 -6 67 -6q12 39 13 152q0 59 -19.5 93t-52.5 34q-70 0 -70 -129z" />
<glyph unicode="9" horiz-adv-x="1226" d="M53 901q0 236 145.5 382.5t391.5 146.5q272 0 409.5 -171.5t137.5 -492.5q0 -401 -156 -593.5t-440 -192.5q-254 0 -430 86l122 309q170 -78 295 -78q158 0 158 203q-104 -49 -221 -49q-199 0 -305.5 127.5t-106.5 322.5zM481 903q0 -172 111 -172q51 0 104 12 q0 6 3 60.5t3 81.5q0 125 -22.5 189.5t-81.5 64.5q-117 0 -117 -236z" />
<glyph unicode=":" horiz-adv-x="585" d="M86 193q0 88 55.5 151.5t149.5 63.5q96 0 151.5 -58.5t55.5 -154.5q0 -92 -57.5 -153.5t-153.5 -61.5q-94 0 -147.5 58.5t-53.5 154.5zM86 889q0 88 55.5 151.5t149.5 63.5q96 0 151.5 -58.5t55.5 -154.5q0 -92 -57.5 -153.5t-153.5 -61.5q-94 0 -147.5 58.5t-53.5 154.5 z" />
<glyph unicode=";" horiz-adv-x="651" d="M78 -322l39 547q6 86 55 130t123 44q96 0 153.5 -48t57.5 -122q0 -35 -17 -77l-204 -519zM147 889q0 88 55.5 151.5t149.5 63.5q96 0 151.5 -58.5t55.5 -154.5q0 -92 -57.5 -153.5t-153.5 -61.5q-94 0 -147.5 58.5t-53.5 154.5z" />
<glyph unicode="&#x3c;" d="M84 535v245l850 400l147 -322l-428 -196l434 -211l-151 -324z" />
<glyph unicode="=" d="M80 209v346h1010v-346h-1010zM80 705v346h1010v-346h-1010z" />
<glyph unicode="&#x3e;" d="M84 451l434 211l-428 196l148 322l849 -400v-245l-851 -408z" />
<glyph unicode="?" horiz-adv-x="989" d="M82 1438q152 39 319 39q260 0 396.5 -108.5t136.5 -317.5q0 -141 -84 -249t-266 -161v-176h-432v381q45 2 63 4t70.5 8t82 18.5t65.5 31t53.5 48t17.5 68.5q0 127 -154 127q-98 0 -221 -31zM178 176q0 86 52.5 146.5t142.5 60.5q94 0 146 -56.5t52 -146.5 q0 -88 -50 -145.5t-142 -57.5t-146.5 54.5t-54.5 144.5z" />
<glyph unicode="@" horiz-adv-x="1630" d="M47 358q0 406 255 631t650 225q283 0 549 -116v-1035q-197 -72 -428 -71q-248 0 -370.5 90t-122.5 305q0 176 112.5 269.5t270.5 93.5q78 0 131 -25v143q-66 14 -142 15q-225 0 -350 -133.5t-125 -372.5q0 -231 131 -370.5t398 -139.5q186 0 323 51l84 -334 q-193 -63 -450 -63q-240 0 -424.5 75.5t-288 200.5t-153.5 266t-50 295zM985 381q0 -57 27.5 -94t81.5 -33v244q-51 6 -80 -26t-29 -91z" />
<glyph unicode="A" horiz-adv-x="1357" d="M-6 0l412 1473h530l428 -1473h-453l-82 285h-323l-70 -285h-442zM580 578h172l-52 276q-27 139 -30 233h-11q-4 -106 -28 -233z" />
<glyph unicode="B" horiz-adv-x="1277" d="M119 0v1473h563q350 0 473 -191q49 -80 49 -172q0 -240 -196 -326q106 -27 172.5 -119t66.5 -208q0 -221 -147.5 -339t-442.5 -118h-538zM563 309h76q139 0 139 154q0 152 -133 151h-82v-305zM563 903h47q57 0 88 37t31 96q0 66 -35 93.5t-104 27.5h-27v-254z" />
<glyph unicode="C" horiz-adv-x="1271" d="M59 725q0 123 19.5 233.5t68 214t121 177t185 117.5t254.5 44q485 0 565 -481l-412 -100q-45 190 -158 190q-176 0 -176 -372q0 -406 287 -406q133 0 336 98l70 -370q-217 -109 -482 -109q-147 0 -265 47t-193.5 122t-126 176.5t-72 205.5t-21.5 213z" />
<glyph unicode="D" horiz-adv-x="1368" d="M119 0v1473h534q655 0 656 -678q0 -795 -699 -795h-491zM561 338h41q125 0 182.5 99.5t57.5 324.5q0 195 -51.5 279.5t-165.5 84.5h-64v-788z" />
<glyph unicode="E" horiz-adv-x="1175" d="M119 0v1473h1003v-361h-561v-197h488v-348h-488v-207h584v-360h-1026z" />
<glyph unicode="F" d="M119 0v1473h1032v-361h-590v-197h494v-348h-494v-567h-442z" />
<glyph unicode="G" horiz-adv-x="1359" d="M59 760q0 338 163 544.5t487 206.5q248 0 376.5 -118.5t176.5 -327.5l-416 -100q-20 92 -54 123.5t-92 31.5q-174 0 -174 -356q0 -100 9.5 -173t34 -135.5t72.5 -95t118 -32.5q51 0 84 4v170h-131v303h565v-733q-227 -111 -520 -111q-356 0 -527.5 194.5t-171.5 604.5z " />
<glyph unicode="H" horiz-adv-x="1449" d="M119 0v1473h442v-541h328v541h442v-1473h-442v543h-328v-543h-442z" />
<glyph unicode="I" horiz-adv-x="679" d="M119 0v1473h442v-1473h-442z" />
<glyph unicode="J" horiz-adv-x="899" d="M0 41l106 346q98 -37 166 -37q90 0 90 107v1016h445v-1033q0 -117 -16 -188q-35 -143 -148 -217t-276 -74q-220 0 -367 80z" />
<glyph unicode="K" horiz-adv-x="1353" d="M119 0v1473h434v-555h18l273 555h465l-389 -695l454 -778h-495l-301 543h-25v-543h-434z" />
<glyph unicode="L" horiz-adv-x="1155" d="M117 0v1473h442v-1111h561v-362h-1003z" />
<glyph unicode="M" horiz-adv-x="1681" d="M51 0l107 1473h458l152 -521q74 -264 86 -346h6q18 145 78 346l156 521h444l92 -1473h-405l-29 725h-8q-18 -104 -58 -231l-108 -365h-342l-107 365q-49 166 -59 231h-10l-35 -725h-418z" />
<glyph unicode="N" horiz-adv-x="1441" d="M119 0v1473h407l273 -555q37 -78 98 -228h6q-16 154 -16 244v539h436v-1473h-385l-279 528q-72 133 -112 263h-10q18 -133 18 -273v-518h-436z" />
<glyph unicode="O" horiz-adv-x="1431" d="M59 756q0 352 183.5 554.5t488.5 202.5q315 0 478 -194.5t163 -554.5q0 -420 -177 -611.5t-486 -191.5q-303 0 -476.5 189.5t-173.5 605.5zM526 752q0 -217 47.5 -312.5t141.5 -95.5q92 0 141 89t49 329q0 201 -48 279.5t-134 78.5q-197 1 -197 -368z" />
<glyph unicode="P" horiz-adv-x="1265" d="M119 0v1473h557q258 0 405.5 -127t147.5 -349q0 -244 -154.5 -393t-423.5 -149h-90v-455h-442zM561 791h37q92 0 133 44t41 142q0 164 -149 164h-62v-350z" />
<glyph unicode="Q" horiz-adv-x="1417" d="M59 756q0 350 179.5 553.5t476.5 203.5q324 0 486.5 -194.5t162.5 -554.5q0 -227 -101.5 -396t-238.5 -229v-12q227 -41 324 -47l-78 -324q-373 61 -670 172q-125 47 -218 109.5t-169 159t-115 237t-39 322.5zM526 752q0 -217 47.5 -312.5t141.5 -95.5q92 0 141 89 t49 329q0 201 -48 279.5t-134 78.5q-197 1 -197 -368z" />
<glyph unicode="R" horiz-adv-x="1316" d="M119 0v1473h555q266 0 416.5 -105.5t150.5 -318.5q0 -291 -229 -418l315 -631h-481l-234 545h-51v-545h-442zM561 881h92q59 0 98.5 34.5t39.5 100.5q0 72 -40 97.5t-124 25.5h-66v-258z" />
<glyph unicode="S" horiz-adv-x="1206" d="M41 84l129 399q203 -119 371 -118q47 0 74.5 21.5t27.5 55.5q0 41 -34 64.5t-103 50.5q-88 35 -135 54.5t-118 61.5t-106.5 84t-63.5 108.5t-28 148.5q0 229 160 363t414 134q385 0 577 -317l-346 -215q-104 137 -227 137q-78 0 -78 -63q0 -45 42 -75t167 -83 q72 -31 118 -53.5t104 -62.5t92 -83t57.5 -106.5t23.5 -140.5q0 -215 -150.5 -351.5t-422.5 -136.5q-309 0 -545 123z" />
<glyph unicode="T" horiz-adv-x="1210" d="M0 1112v361h1210v-361h-383v-1112h-444v1112h-383z" />
<glyph unicode="U" horiz-adv-x="1349" d="M90 528v945h445v-865q0 -74 2 -112q6 -70 36.5 -110t106.5 -40q123 0 133 141q2 37 2 119v867h445v-947q0 -184 -56 -303q-119 -262 -536 -262q-352 0 -490 205q-88 133 -88 362z" />
<glyph unicode="V" horiz-adv-x="1349" d="M-10 1473h459l190 -787q35 -135 41 -266h8q4 113 37 252l199 801h436l-428 -1473h-518z" />
<glyph unicode="W" horiz-adv-x="1736" d="M10 1473h426l74 -533q25 -190 25 -295l6 -2l157 700h349l145 -702l8 2q2 139 21 283l79 547h426l-245 -1473h-402l-143 506q-51 186 -66 301h-6q-10 -111 -67 -311l-142 -496h-401z" />
<glyph unicode="X" horiz-adv-x="1376" d="M-6 0l430 737l-416 736h510l178 -357l185 357h505l-442 -750l412 -723h-488l-186 350l-174 -350h-514z" />
<glyph unicode="Y" horiz-adv-x="1390" d="M-16 1473h487l168 -402q43 -102 61 -217h11q16 115 63 231l150 388h483l-487 -961v-512h-443v506z" />
<glyph unicode="Z" horiz-adv-x="1236" d="M33 0v272l614 854h-579v347h1136v-295l-608 -826h586v-352h-1149z" />
<glyph unicode="[" horiz-adv-x="749" d="M102 -311v1988h648v-262h-236v-1462h236v-264h-648z" />
<glyph unicode="\" horiz-adv-x="1019" d="M0 1524q61 20 184 59t183 57l653 -1726q-59 -20 -180 -63.5t-181 -65.5z" />
<glyph unicode="]" horiz-adv-x="749" d="M0 -47h233v1462h-233v262h647v-1988h-647v264z" />
<glyph unicode="^" horiz-adv-x="1196" d="M-23 586l400 829h262l397 -829l-350 -54l-180 412l-178 -407z" />
<glyph unicode="_" horiz-adv-x="1024" d="M-14 -172h1052v-285h-1052v285z" />
<glyph unicode="`" horiz-adv-x="1142" d="M309 1370l115 258l418 -213l-99 -217z" />
<glyph unicode="a" horiz-adv-x="1185" d="M41 336q0 385 430 385q72 0 154 -19q0 115 -179 115q-123 0 -278 -49l-41 299q193 61 416 61q195 0 303 -50t153 -175q33 -86 33 -225v-352q0 -62 45 -62q25 0 64 19l33 -252q-113 -51 -256 -51q-160 0 -230 126q-117 -127 -297 -126q-170 0 -260 98t-90 258zM457 383 q0 -104 78 -104q29 0 55 18t35 39v123q-4 8 -28 16t-50 8q-90 0 -90 -100z" />
<glyph unicode="b" horiz-adv-x="1155" d="M86 74v1399h430v-390q115 45 219 45q174 0 278.5 -118.5t104.5 -380.5q0 -303 -143.5 -476t-439.5 -173q-117 0 -245 28.5t-204 65.5zM516 309q20 -12 66 -12q59 0 80.5 59.5t21.5 227.5q0 111 -21.5 163t-76.5 52q-39 0 -70 -11v-479z" />
<glyph unicode="c" horiz-adv-x="1003" d="M37 559q0 115 27.5 212t87 180t169 130t257.5 47q182 0 294.5 -97t145.5 -273l-350 -107q-14 78 -37 111t-62 33q-88 0 -88 -205q0 -133 42 -199.5t147 -66.5q133 0 262 73l16 -348q-158 -70 -354 -69q-156 0 -268.5 47t-173 132t-88 183t-27.5 217z" />
<glyph unicode="d" d="M37 555q0 246 115.5 408.5t328.5 162.5q121 0 170 -32v379h434v-1473h-378l-19 82q-82 -102 -233 -102q-188 0 -303 146t-115 429zM483 557q0 -131 26 -192.5t89 -61.5h55v506q-20 12 -55 12q-115 0 -115 -264z" />
<glyph unicode="e" horiz-adv-x="1030" d="M37 571q0 276 141 416.5t352 140.5q463 0 463 -526v-133h-524q18 -145 182 -145q141 0 299 88l19 -355q-152 -78 -359 -77q-573 -1 -573 591zM471 705h131q0 131 -67 131q-64 0 -64 -131z" />
<glyph unicode="f" horiz-adv-x="831" d="M0 813v295h141q0 117 43 199q100 193 402 192q188 0 309 -51l-33 -287q-94 41 -192 41q-55 0 -77 -17.5t-22 -76.5h244v-295h-244v-813h-430v813h-141z" />
<glyph unicode="g" horiz-adv-x="1169" d="M37 557q0 242 112.5 406.5t311.5 164.5q84 0 145.5 -26.5t87.5 -59.5l25 68h364v-1114q0 -199 -121.5 -334t-375.5 -135q-248 0 -447 76l58 344q172 -76 319 -76q82 0 114 27.5t32 95.5v76q-41 -70 -211 -70q-190 0 -302 138t-112 419zM481 559q0 -129 24.5 -183 t90.5 -54q37 0 55 8v469q-27 16 -63 16q-33 0 -52.5 -13.5t-37 -73.5t-17.5 -169z" />
<glyph unicode="h" horiz-adv-x="1177" d="M86 0v1475h434v-404q115 57 252 57q274 0 309 -254q10 -68 11 -139v-735h-435v682q0 29 -2 47q-4 49 -59 49q-43 0 -76 -12v-766h-434z" />
<glyph unicode="i" horiz-adv-x="604" d="M80 1421q0 104 61.5 160.5t157.5 56.5q104 0 163.5 -55t59.5 -160q0 -102 -61.5 -156.5t-159.5 -54.5t-159.5 56.5t-61.5 152.5zM86 0v1108h432v-1108h-432z" />
<glyph unicode="j" horiz-adv-x="604" d="M-256 -416l59 342q106 -45 193 -45q45 0 67.5 19.5t22.5 76.5v1131h434v-1157q0 -197 -108.5 -311.5t-327.5 -114.5q-190 0 -340 59zM80 1421q0 104 61.5 160.5t157.5 56.5q104 0 163.5 -55t59.5 -160q0 -102 -61.5 -156.5t-159.5 -54.5t-159.5 56.5t-61.5 152.5z" />
<glyph unicode="k" horiz-adv-x="1267" d="M86 0v1473h434v-682h35l205 321l454 -47l-286 -420l352 -645h-485l-232 434h-43v-434h-434z" />
<glyph unicode="l" horiz-adv-x="729" d="M76 348v1125h434v-1065q0 -78 65 -78q53 0 103 28l51 -319q-129 -59 -291 -59q-203 0 -282.5 96t-79.5 272z" />
<glyph unicode="m" horiz-adv-x="1757" d="M86 0v1108h373l20 -68q117 88 283 88q160 0 256 -100q152 100 325 100q283 0 322 -256q6 -41 6 -139v-733h-432v680q0 33 -2 45q-6 51 -55 51q-45 0 -88 -16v-760h-432v680q0 33 -3 53q-4 43 -57 43q-41 0 -82 -16v-760h-434z" />
<glyph unicode="n" horiz-adv-x="1177" d="M86 0v1108h373l20 -68q125 88 283 88q287 0 321 -256q8 -55 9 -139v-733h-435v680q0 33 -2 45q-4 51 -51 51q-43 0 -84 -12v-764h-434z" />
<glyph unicode="o" horiz-adv-x="1132" d="M37 555q0 258 136 415.5t402 157.5q520 0 521 -557q0 -125 -30 -228t-91.5 -186t-169 -130t-250.5 -47q-141 0 -245.5 47t-162 130t-84 181t-26.5 217zM477 553q0 -141 19.5 -195.5t68.5 -54.5q88 0 88 252q0 133 -18.5 188.5t-65.5 55.5q-51 0 -71.5 -54.5t-20.5 -191.5 z" />
<glyph unicode="p" horiz-adv-x="1159" d="M86 -428v1536h397l17 -57q111 78 239 77q383 0 383 -499q0 -305 -101 -477t-298 -172q-123 0 -209 43v-451h-428zM520 309q20 -12 60 -12q66 0 89 63.5t23 235.5q0 104 -21.5 144t-76.5 40q-37 0 -74 -8v-463z" />
<glyph unicode="q" d="M37 555q0 246 113.5 409.5t312.5 163.5q160 0 233 -88l25 68h364v-1536h-413v491q-68 -84 -217 -83q-188 0 -303 146t-115 429zM483 557q0 -131 26 -192.5t89 -61.5q29 0 55 10v486q-25 14 -55 14q-55 0 -85 -50t-30 -206z" />
<glyph unicode="r" horiz-adv-x="831" d="M86 0v1108h375l26 -104q90 125 222 124q63 0 143 -26l-80 -385q-59 25 -115 24q-68 0 -137 -34v-707h-434z" />
<glyph unicode="s" horiz-adv-x="985" d="M14 94l117 332q63 -57 170 -98t166 -41q57 0 57 41q0 23 -29.5 37t-97.5 30l-67 19q-23 6 -68 22.5t-70.5 31.5t-60.5 43t-54.5 60.5t-32.5 79.5t-13 103q0 180 135 277t336 97q346 0 475 -243l-301 -150q-80 94 -150 94q-49 0 -49 -36q0 -31 32 -48.5t105 -39.5 q66 -20 94.5 -30.5t88 -41.5t88 -62.5t54.5 -90t26 -130.5q0 -160 -127 -265t-353 -105q-141 0 -274.5 34.5t-196.5 79.5z" />
<glyph unicode="t" horiz-adv-x="843" d="M2 813v295h145v192l435 191v-383h198v-295h-198v-391q0 -51 13 -71.5t64 -20.5q66 0 129 35l43 -328q-121 -57 -315 -57q-369 0 -369 348v485h-145z" />
<glyph unicode="u" horiz-adv-x="1181" d="M86 377v688l438 43v-678q0 -45 2 -57q8 -41 54 -41q35 0 82 14v762h434v-1108h-371l-20 66q-123 -86 -285 -86q-287 0 -326 256q-8 57 -8 141z" />
<glyph unicode="v" horiz-adv-x="1146" d="M-4 1067l453 39l108 -569q23 -123 23 -201h10q0 100 16 186l107 590l438 -45l-305 -1067h-516z" />
<glyph unicode="w" horiz-adv-x="1521" d="M2 1065l438 43l64 -444q10 -78 16 -175l4 -2h4q4 113 17 175l73 389h302l77 -392q23 -109 29 -178l8 2q0 106 10 183l54 442l422 -43l-226 -1065h-442l-70 352q-16 80 -18 137h-6q-2 -70 -21 -139l-82 -350h-422z" />
<glyph unicode="x" horiz-adv-x="1163" d="M-8 0l346 549l-334 516l475 43l107 -231l137 231l451 -43l-363 -506l365 -559h-459l-135 223l-119 -223h-471z" />
<glyph unicode="y" horiz-adv-x="1150" d="M-141 -387l106 340q143 -72 228 -72q63 0 105 50.5t83 160.5l-399 975l458 41l125 -457q29 -96 29 -178h8q72 283 135 635l424 -43q-141 -494 -340 -979q-41 -96 -74.5 -166t-87 -149.5t-109.5 -129t-134 -83t-166 -33.5q-227 0 -391 88z" />
<glyph unicode="z" horiz-adv-x="1052" d="M45 0v260l434 553h-411v295h938v-244l-445 -561h430v-303h-946z" />
<glyph unicode="{" horiz-adv-x="798" d="M41 588v229q90 0 119.5 36t29.5 122v362q0 96 35 170q84 170 322 170q145 0 241 -47l-40 -258q-39 14 -70 14q-94 0 -94 -73v-363q0 -184 -142 -250q141 -70 142 -245v-392q0 -37 15 -57t32.5 -25.5t46.5 -5.5t70 9l40 -258q-100 -47 -241 -48q-238 0 -322 170 q-35 74 -35 177v340q0 45 -1 70.5t-9 58t-23.5 49t-44 30t-71.5 15.5z" />
<glyph unicode="|" horiz-adv-x="587" d="M102 -242v1813h377v-1813h-377z" />
<glyph unicode="}" horiz-adv-x="798" d="M10 -274l41 258q41 -8 70 -8.5t46 5t32.5 26t15.5 56.5v392q0 176 141 245q-141 66 -141 250v363q0 74 -94 73q-31 0 -70 -14l-41 258q96 47 242 47q238 0 321 -170q35 -74 35 -170v-362q0 -86 30 -122t120 -36v-229q-43 -2 -72 -15.5t-44 -30t-23.5 -49t-9.5 -58 t-1 -70.5v-340q0 -102 -35 -177q-84 -170 -321 -170q-142 1 -242 48z" />
<glyph unicode="~" horiz-adv-x="1302" d="M-94 563q88 113 123 148q133 133 276 133q96 0 241.5 -69.5t211.5 -69.5q119 0 219 141l250 -209q-47 -90 -123 -160q-127 -117 -293 -117q-94 0 -241.5 64.5t-194.5 64.5q-113 0 -223 -137z" />
<glyph unicode="&#xa1;" horiz-adv-x="577" d="M68 -369l41 1014h362l47 -1014h-450zM96 926q0 88 51.5 145t143.5 57t146.5 -54t54.5 -144q0 -86 -52.5 -146.5t-144.5 -60.5q-94 0 -146.5 56.5t-52.5 146.5z" />
<glyph unicode="&#xa2;" horiz-adv-x="1189" d="M154 659q0 193 71.5 334.5t227.5 196.5v172h348v-162q221 -61 268 -311l-309 -82q-14 61 -36 90t-69 29q-59 0 -83.5 -64.5t-26.5 -193.5q0 -131 22.5 -195.5t81.5 -64.5q92 0 121 124l299 -88q-47 -248 -268 -311v-188h-348v196q-154 53 -226.5 192.5t-72.5 325.5z" />
<glyph unicode="&#xa3;" d="M55 573v275h125q-37 90 -37 174q0 182 138.5 295t377.5 113q375 0 488 -334l-361 -125q-41 121 -131 121q-80 0 -80 -93q0 -59 41 -151h355v-273h-277q23 -76 23 -118q0 -74 -64 -160h512v-297h-1042l-29 248q98 27 148.5 86t50.5 123q0 41 -23 116h-215z" />
<glyph unicode="&#xa4;" horiz-adv-x="1243" d="M70 338l129 125q-70 125 -70 250q0 137 70 248l-129 126l161 162l144 -137q123 59 243 59q123 0 242 -61l144 139l163 -162l-131 -126q78 -127 78 -248q0 -133 -78 -250l133 -125l-165 -162l-144 133q-115 -57 -242 -57q-125 0 -243 59l-144 -135zM424 713 q0 -104 55.5 -162.5t141.5 -58.5q80 0 137 59t57 162q0 104 -56.5 161.5t-137.5 57.5q-88 0 -142.5 -58.5t-54.5 -160.5z" />
<glyph unicode="&#xa5;" d="M-61 1403h487l106 -332q41 -96 60 -217h10q14 94 55 229l97 320h483l-299 -600h139v-314h-264v-489h-442v489h-265v314h136z" />
<glyph unicode="&#xa6;" horiz-adv-x="593" d="M102 -242v848h383v-848h-383zM102 799v772h383v-772h-383z" />
<glyph unicode="&#xa7;" horiz-adv-x="1261" d="M41 -123l272 252q137 -145 209 -145q59 0 60 63q0 49 -38 107.5t-208 273.5q-131 166 -182.5 273.5t-51.5 250.5q0 256 157 403.5t421 147.5q106 0 194.5 -25.5t150.5 -73.5t94 -81t71 -84l-275 -207q-98 119 -149 119q-25 0 -43 -15.5t-18 -45.5q0 -39 21.5 -73 t88.5 -112q74 -84 101.5 -114.5t90 -114.5t88 -142.5t50 -146.5t24.5 -178q0 -254 -151.5 -417t-431.5 -163q-188 0 -335 84t-210 164zM379 995q0 -82 49 -176t119.5 -183t141.5 -183.5t120 -209t49 -229.5q0 -70 -22 -153l18 -6q59 150 59 280q0 113 -50 225.5 t-121.5 204.5t-144.5 180.5t-127 186.5t-60 190l-15 2q-16 -61 -16 -129z" />
<glyph unicode="&#xa8;" horiz-adv-x="1067" d="M59 1399q0 90 52.5 139t134.5 49q193 0 192 -188q0 -90 -52 -138.5t-140 -48.5q-86 0 -136.5 49.5t-50.5 137.5zM623 1399q0 90 51 139t135 49q193 0 192 -188q0 -88 -54 -137.5t-138 -49.5t-135 49.5t-51 137.5z" />
<glyph unicode="&#xa9;" horiz-adv-x="1802" d="M96 723q0 340 223.5 563t571.5 223q356 0 585.5 -221t229.5 -553q0 -348 -228.5 -570t-586.5 -222q-365 0 -580 218t-215 562zM330 723q0 -254 157.5 -415t405.5 -161q258 0 420 159t162 417q0 256 -164 419t-418 163t-408.5 -162t-154.5 -420zM500 723q0 219 115.5 343 t293.5 124q113 0 201 -51.5t137 -134.5l-137 -115q-45 57 -86 82.5t-104 25.5q-102 0 -152.5 -72.5t-50.5 -195.5q0 -127 52 -200.5t149 -73.5q66 0 113.5 25.5t101.5 78.5l106 -151q-143 -139 -330 -140q-111 0 -194.5 42t-127.5 113t-65.5 145.5t-21.5 154.5z" />
<glyph unicode="&#xaa;" horiz-adv-x="839" d="M31 909q0 274 307 275q47 0 111 -15q0 74 -127 74q-90 0 -199 -35l-29 222q135 43 295 43q141 0 221 -36t113 -124q23 -63 22 -160v-252q0 -43 33 -43q25 0 45 12l17 -178q-78 -37 -185 -37q-113 0 -161 90q-80 -90 -213 -90q-121 0 -185.5 69.5t-64.5 184.5zM328 942 q0 -74 55 -74q49 0 66 41v88q-10 16 -58 17q-63 0 -63 -72z" />
<glyph unicode="&#xab;" horiz-adv-x="1406" d="M20 590l472 500l235 -252l-246 -242l260 -260l-239 -246zM655 590l471 500l236 -252l-246 -242l260 -260l-239 -246z" />
<glyph unicode="&#xac;" d="M113 469v342h946v-655h-330v313h-616z" />
<glyph unicode="&#xad;" horiz-adv-x="763" d="M74 455v317h616v-317h-616z" />
<glyph unicode="&#xae;" horiz-adv-x="1802" d="M96 723q0 340 223.5 563t571.5 223q356 0 585.5 -221t229.5 -553q0 -348 -228.5 -570t-586.5 -222q-365 0 -580 218t-215 562zM330 723q0 -254 157.5 -415t405.5 -161q258 0 420 159t162 417q0 256 -164 419t-418 163t-408.5 -162t-154.5 -420zM614 309v856h314 q317 0 317 -247q0 -168 -168 -244l176 -365h-209l-149 336h-92v-336h-189zM797 801h88q82 0 123 23.5t41 90.5q0 59 -35 80t-107 21h-110v-215z" />
<glyph unicode="&#xaf;" horiz-adv-x="1095" d="M209 1268v280h700v-280h-700z" />
<glyph unicode="&#xb0;" horiz-adv-x="610" d="M45 1237q0 117 78 196.5t192 79.5q123 0 197 -76.5t74 -185.5q0 -125 -78 -207.5t-199 -82.5t-192.5 79.5t-71.5 196.5zM227 1237q0 -45 23.5 -76t64.5 -31t64.5 31t23.5 76q0 47 -22.5 76.5t-65.5 29.5q-88 0 -88 -106z" />
<glyph unicode="&#xb1;" d="M63 -2v305h349v236h-344v307h344v350h313v-350h334v-307h-334v-236h332v-305h-994z" />
<glyph unicode="&#xb2;" horiz-adv-x="819" d="M59 774v201q121 96 178.5 147.5t133.5 141.5q72 84 71 131q0 57 -63 57q-66 0 -103 -92l-208 131q111 203 362 203q141 0 231.5 -71t90.5 -196q0 -98 -60 -186q-35 -53 -101.5 -121.5t-111.5 -105.5h281v-240h-701z" />
<glyph unicode="&#xb3;" horiz-adv-x="819" d="M68 844l98 223q90 -68 188 -68q96 0 97 74q0 43 -22.5 59.5t-70.5 16.5h-108v182h94q53 0 75.5 14.5t22.5 51.5q0 61 -61 61q-66 0 -119 -69l-182 145q115 160 336 160q143 0 233 -61.5t90 -180.5q0 -70 -44 -127t-103 -78q74 -16 117 -68.5t43 -131.5q0 -123 -99.5 -204 t-279.5 -81q-170 0 -305 82z" />
<glyph unicode="&#xb4;" horiz-adv-x="1142" d="M289 1415l424 215l108 -260l-434 -172z" />
<glyph unicode="&#xb5;" horiz-adv-x="1273" d="M104 -375v1483h431v-727q0 -70 20 -95.5t70 -25.5q37 0 56 22.5t23.5 47t4.5 65.5v713h430v-780q0 -74 53 -74q25 0 43 8l25 -237q-104 -43 -228 -43q-68 0 -126 32.5t-87 81.5q-59 -115 -184 -114q-45 0 -80 23.5t-47 55.5v-436h-404z" />
<glyph unicode="&#xb6;" horiz-adv-x="1261" d="M102 1030q0 227 154 335t371 108h542l-20 -291h-156v-1082q0 -209 -116.5 -340t-376.5 -131q-217 0 -373 60l53 311q127 -59 273 -59q84 0 128 41t44 141v463q-231 0 -377 108.5t-146 335.5z" />
<glyph unicode="&#xb7;" horiz-adv-x="647" d="M117 786q0 90 55 152.5t151.5 62.5t151.5 -58t55 -155q0 -92 -58 -153.5t-155 -61.5q-94 0 -147 58.5t-53 154.5z" />
<glyph unicode="&#xb8;" horiz-adv-x="1132" d="M332 -539l45 164q53 -18 106 -18q78 0 78 63.5t-76 63.5q-31 0 -79 -10v159q74 18 161 19q109 0 166.5 -58.5t57.5 -142.5q0 -137 -89.5 -200.5t-212.5 -63.5q-81 -1 -157 24z" />
<glyph unicode="&#xb9;" horiz-adv-x="819" d="M88 778v207h162v483h-154v209h465v-692h168v-207h-641z" />
<glyph unicode="&#xba;" horiz-adv-x="849" d="M35 1061q0 178 99 295t298 117q381 0 381 -398q0 -180 -96 -301t-301 -121q-201 0 -291 118t-90 290zM365 1063q0 -102 12 -142t45 -40q59 0 59 194q0 92 -11 133t-44 41q-35 0 -48 -43t-13 -143z" />
<glyph unicode="&#xbb;" horiz-adv-x="1406" d="M31 336l260 260l-246 242l236 252l471 -500l-482 -500zM666 336l260 260l-246 242l235 252l471 -500l-481 -500z" />
<glyph unicode="&#xbc;" horiz-adv-x="2170" d="M131 573v207h162v484h-154v209h465v-693h168v-207h-641zM686 0l471 1473h373l-475 -1473h-369zM1286 190v136l354 581h334v-526h103v-195h-103v-186h-291v190h-397zM1530 381h153v156q0 86 13 151l-8 4q-16 -61 -62 -141z" />
<glyph unicode="&#xbd;" horiz-adv-x="2170" d="M119 573v207h162v484h-154v209h465v-693h168v-207h-641zM662 0l471 1473h372l-475 -1473h-368zM1360 0v201q121 96 178 147t133 141q72 84 72 132q0 57 -64 57q-66 0 -102 -92l-209 131q111 203 363 203q141 0 231 -71t90 -196q0 -98 -59 -186q-35 -53 -101.5 -122 t-111.5 -105h280v-240h-700z" />
<glyph unicode="&#xbe;" horiz-adv-x="2170" d="M121 639l98 223q90 -68 189 -67q96 0 96 73q0 43 -22.5 59.5t-69.5 16.5h-109v182h94q53 0 76 14.5t23 51.5q0 61 -62 61q-66 0 -119 -69l-182 145q115 160 336 160q143 0 233.5 -61.5t90.5 -180.5q0 -70 -44 -127t-104 -78q74 -16 117 -68t43 -132q0 -123 -99.5 -204 t-279.5 -81q-170 0 -305 82zM692 0l471 1473h373l-475 -1473h-369zM1300 190v136l355 581h334v-526h102v-195h-102v-186h-291v190h-398zM1544 381h154v156q0 86 12 151l-8 4q-16 -61 -62 -141z" />
<glyph unicode="&#xbf;" horiz-adv-x="995" d="M57 55q0 141 84 249t267 161v176h432v-381q-45 -2 -63.5 -4t-71 -8t-82 -18.5t-65.5 -31t-53.5 -48t-17.5 -68.5q0 -127 154 -127q98 0 221 31l47 -318q-152 -39 -319 -39q-260 0 -396.5 108.5t-136.5 317.5zM420 926q0 88 50 145t142.5 57t146.5 -54t54 -144 q0 -86 -52 -146.5t-143 -60.5q-94 0 -146 56.5t-52 146.5z" />
<glyph unicode="&#xc0;" horiz-adv-x="1357" d="M-6 0l412 1473h530l428 -1473h-453l-82 285h-323l-70 -285h-442zM406 1700l86 272l440 -174l-72 -227zM580 578h172l-52 276q-27 139 -30 233h-11q-4 -106 -28 -233z" />
<glyph unicode="&#xc1;" horiz-adv-x="1357" d="M-6 0l412 1473h530l428 -1473h-453l-82 285h-323l-70 -285h-442zM403 1796l441 174l86 -272l-453 -129zM580 578h172l-52 276q-27 139 -30 233h-11q-4 -106 -28 -233z" />
<glyph unicode="&#xc2;" horiz-adv-x="1357" d="M-6 0l412 1473h530l428 -1473h-453l-82 285h-323l-70 -285h-442zM307 1690l232 235h303l209 -244l-166 -133l-201 138l-213 -138zM580 578h172l-52 276q-27 139 -30 233h-11q-4 -106 -28 -233z" />
<glyph unicode="&#xc3;" horiz-adv-x="1357" d="M-6 0l412 1473h530l428 -1473h-453l-82 285h-323l-70 -285h-442zM356 1853q29 25 89.5 46.5t109.5 21.5q51 0 145.5 -28.5t143.5 -28.5q80 0 139 34l21 -268q-59 -31 -148 -31q-51 0 -147.5 24t-130.5 24q-98 0 -185 -52zM580 578h172l-52 276q-27 139 -30 233h-11 q-4 -106 -28 -233z" />
<glyph unicode="&#xc4;" horiz-adv-x="1357" d="M-6 0l412 1473h530l428 -1473h-453l-82 285h-323l-70 -285h-442zM229 1778q0 90 52.5 139t134.5 49q193 0 192 -188q0 -90 -52 -138.5t-140 -48.5q-86 0 -136.5 49.5t-50.5 137.5zM580 578h172l-52 276q-27 139 -30 233h-11q-4 -106 -28 -233zM752 1778q0 90 51 139 t135 49q193 0 192 -188q0 -88 -54 -137.5t-138 -49.5t-135 49.5t-51 137.5z" />
<glyph unicode="&#xc5;" horiz-adv-x="1341" d="M-14 0l432 1470q-29 63 -29 138q0 121 79 202.5t198 81.5q127 0 202.5 -79.5t75.5 -192.5q0 -84 -37 -152l449 -1468h-453l-82 285h-323l-70 -285h-442zM571 578h172l-51 276q-27 139 -30 233h-11q-4 -106 -28 -233zM575 1608q0 -47 24 -78t67 -31t66.5 32t23.5 77 q0 106 -90.5 106t-90.5 -106z" />
<glyph unicode="&#xc6;" horiz-adv-x="1890" d="M-6 0l567 1473h1278v-361h-561v-197h487v-348h-487v-207h584v-360h-1028v317h-283l-117 -317h-440zM641 627h193v553h-9q-18 -92 -71 -238z" />
<glyph unicode="&#xc7;" horiz-adv-x="1271" d="M59 725q0 123 19.5 233.5t68 214t121 177t185 117.5t254.5 44q485 0 565 -481l-412 -100q-45 190 -158 190q-176 0 -176 -372q0 -406 287 -406q133 0 336 98l70 -370q-217 -109 -482 -109q-147 0 -265 47t-193.5 122t-126 176.5t-72 205.5t-21.5 213zM498 -539l45 164 q53 -18 106 -18q78 0 78 63.5t-76 63.5q-31 0 -80 -10v159q74 18 162 19q109 0 166 -58.5t57 -142.5q0 -137 -89 -200.5t-212 -63.5q-81 -1 -157 24z" />
<glyph unicode="&#xc8;" horiz-adv-x="1175" d="M119 0v1473h1003v-361h-561v-197h488v-348h-488v-207h584v-360h-1026zM336 1698l86 272l440 -174l-71 -227z" />
<glyph unicode="&#xc9;" horiz-adv-x="1175" d="M119 0v1473h1003v-361h-561v-197h488v-348h-488v-207h584v-360h-1026zM379 1796l440 174l86 -272l-452 -129z" />
<glyph unicode="&#xca;" horiz-adv-x="1175" d="M119 0v1473h1003v-361h-561v-197h488v-348h-488v-207h584v-360h-1026zM254 1692l231 235h303l209 -244l-166 -133l-200 138l-213 -138z" />
<glyph unicode="&#xcb;" horiz-adv-x="1175" d="M119 0v1473h1003v-361h-561v-197h488v-348h-488v-207h584v-360h-1026zM178 1776q0 90 52.5 139t134.5 49q193 0 192 -188q0 -90 -52 -138.5t-140 -48.5q-86 0 -136.5 49.5t-50.5 137.5zM700 1776q0 90 51.5 139t135.5 49q193 0 192 -188q0 -88 -54 -137.5t-138 -49.5 t-135.5 49.5t-51.5 137.5z" />
<glyph unicode="&#xcc;" horiz-adv-x="679" d="M94 1698l86 272l441 -174l-72 -227zM119 0v1473h442v-1473h-442z" />
<glyph unicode="&#xcd;" horiz-adv-x="679" d="M59 1796l441 174l86 -272l-453 -129zM119 0v1473h442v-1473h-442z" />
<glyph unicode="&#xce;" horiz-adv-x="679" d="M-29 1690l232 235h303l209 -244l-166 -133l-201 138l-213 -138zM119 0v1473h442v-1473h-442z" />
<glyph unicode="&#xcf;" horiz-adv-x="679" d="M-109 1778q0 90 52.5 139t134.5 49q193 0 192 -188q0 -90 -52 -138.5t-140 -48.5q-86 0 -136.5 49.5t-50.5 137.5zM119 0v1473h442v-1473h-442zM414 1778q0 90 51 139t135 49q193 0 193 -188q0 -88 -54.5 -137.5t-138.5 -49.5t-135 49.5t-51 137.5z" />
<glyph unicode="&#xd0;" horiz-adv-x="1368" d="M6 578v315h113v580h534q655 0 656 -678q0 -795 -699 -795h-491v578h-113zM561 338h41q125 0 182.5 99.5t57.5 324.5q0 195 -51.5 279.5t-165.5 84.5h-64v-233h103v-315h-103v-240z" />
<glyph unicode="&#xd1;" horiz-adv-x="1441" d="M119 0v1473h407l273 -555q37 -78 98 -228h6q-16 154 -16 244v539h436v-1473h-385l-279 528q-72 133 -112 263h-10q18 -133 18 -273v-518h-436zM432 1853q29 25 89.5 46.5t109.5 21.5q51 0 145 -28.5t144 -28.5q80 0 139 34l20 -268q-59 -31 -147 -31q-51 0 -147.5 24 t-131.5 24q-98 0 -184 -52z" />
<glyph unicode="&#xd2;" horiz-adv-x="1431" d="M59 756q0 352 183.5 554.5t488.5 202.5q315 0 478 -194.5t163 -554.5q0 -420 -177 -611.5t-486 -191.5q-303 0 -476.5 189.5t-173.5 605.5zM449 1698l86 272l440 -174l-72 -227zM526 752q0 -217 47.5 -312.5t141.5 -95.5q92 0 141 89t49 329q0 201 -48 279.5t-134 78.5 q-197 1 -197 -368z" />
<glyph unicode="&#xd3;" horiz-adv-x="1431" d="M59 756q0 352 183.5 554.5t488.5 202.5q315 0 478 -194.5t163 -554.5q0 -420 -177 -611.5t-486 -191.5q-303 0 -476.5 189.5t-173.5 605.5zM471 1796l440 174l86 -272l-452 -129zM526 752q0 -217 47.5 -312.5t141.5 -95.5q92 0 141 89t49 329q0 201 -48 279.5t-134 78.5 q-197 1 -197 -368z" />
<glyph unicode="&#xd4;" horiz-adv-x="1431" d="M59 756q0 352 183.5 554.5t488.5 202.5q315 0 478 -194.5t163 -554.5q0 -420 -177 -611.5t-486 -191.5q-303 0 -476.5 189.5t-173.5 605.5zM332 1690l231 235h303l209 -244l-166 -133l-200 138l-213 -138zM526 752q0 -217 47.5 -312.5t141.5 -95.5q92 0 141 89t49 329 q0 201 -48 279.5t-134 78.5q-197 1 -197 -368z" />
<glyph unicode="&#xd5;" horiz-adv-x="1431" d="M59 756q0 352 183.5 554.5t488.5 202.5q315 0 478 -194.5t163 -554.5q0 -420 -177 -611.5t-486 -191.5q-303 0 -476.5 189.5t-173.5 605.5zM385 1858q29 25 89.5 46t109.5 21q51 0 145 -28.5t143 -28.5q80 0 140 35l20 -269q-59 -31 -147 -30q-51 0 -147.5 23.5 t-131.5 23.5q-98 0 -184 -52zM526 752q0 -217 47.5 -312.5t141.5 -95.5q92 0 141 89t49 329q0 201 -48 279.5t-134 78.5q-197 1 -197 -368z" />
<glyph unicode="&#xd6;" horiz-adv-x="1431" d="M59 756q0 352 183.5 554.5t488.5 202.5q315 0 478 -194.5t163 -554.5q0 -420 -177 -611.5t-486 -191.5q-303 0 -476.5 189.5t-173.5 605.5zM254 1778q0 90 52 139t134 49q193 0 193 -188q0 -90 -52.5 -138.5t-140.5 -48.5q-86 0 -136 49.5t-50 137.5zM526 752 q0 -217 47.5 -312.5t141.5 -95.5q92 0 141 89t49 329q0 201 -48 279.5t-134 78.5q-197 1 -197 -368zM776 1778q0 90 51.5 139t135.5 49q193 0 192 -188q0 -88 -54 -137.5t-138 -49.5t-135.5 49.5t-51.5 137.5z" />
<glyph unicode="&#xd7;" d="M-4 324l317 321l-315 326l266 250l326 -326l328 324l253 -252l-317 -320l324 -325l-260 -246l-336 327l-336 -329z" />
<glyph unicode="&#xd8;" horiz-adv-x="1431" d="M59 756q0 350 182.5 548.5t489.5 198.5q55 0 105 -6l86 172l307 -143l-80 -154q223 -186 223 -608q0 -793 -663 -793q-78 0 -150 13l-102 -211l-295 143l102 205q-205 193 -205 635zM526 752q0 -217 47.5 -312.5t141.5 -95.5q92 0 141 89t49 329q0 201 -48 279.5 t-134 78.5q-197 1 -197 -368z" />
<glyph unicode="&#xd9;" horiz-adv-x="1349" d="M90 528v945h445v-865q0 -74 2 -112q6 -70 36.5 -110t106.5 -40q123 0 133 141q2 37 2 119v867h445v-947q0 -184 -56 -303q-119 -262 -536 -262q-352 0 -490 205q-88 133 -88 362zM422 1698l86 272l440 -174l-71 -227z" />
<glyph unicode="&#xda;" horiz-adv-x="1349" d="M90 528v945h445v-865q0 -74 2 -112q6 -70 36.5 -110t106.5 -40q123 0 133 141q2 37 2 119v867h445v-947q0 -184 -56 -303q-119 -262 -536 -262q-352 0 -490 205q-88 133 -88 362zM455 1796l440 174l86 -272l-453 -129z" />
<glyph unicode="&#xdb;" horiz-adv-x="1349" d="M90 528v945h445v-865q0 -74 2 -112q6 -70 36.5 -110t106.5 -40q123 0 133 141q2 37 2 119v867h445v-947q0 -184 -56 -303q-119 -262 -536 -262q-352 0 -490 205q-88 133 -88 362zM299 1690l231 235h304l208 -244l-165 -133l-201 138l-213 -138z" />
<glyph unicode="&#xdc;" horiz-adv-x="1349" d="M90 528v945h445v-865q0 -74 2 -112q6 -70 36.5 -110t106.5 -40q123 0 133 141q2 37 2 119v867h445v-947q0 -184 -56 -303q-119 -262 -536 -262q-352 0 -490 205q-88 133 -88 362zM221 1776q0 90 52.5 139t134.5 49q193 0 192 -188q0 -90 -52 -138.5t-140 -48.5 q-86 0 -136.5 49.5t-50.5 137.5zM743 1776q0 90 51.5 139t135.5 49q193 0 192 -188q0 -88 -54 -137.5t-138 -49.5t-135.5 49.5t-51.5 137.5z" />
<glyph unicode="&#xdd;" horiz-adv-x="1390" d="M-16 1473h487l168 -402q43 -102 61 -217h11q16 115 63 231l150 388h483l-487 -961v-512h-443v506zM459 1796l440 174l86 -272l-453 -129z" />
<glyph unicode="&#xde;" horiz-adv-x="1253" d="M115 0v1473h442v-220h119q260 0 404.5 -114.5t144.5 -331.5q0 -244 -153.5 -385t-424.5 -141h-90v-281h-442zM557 596h37q90 0 132 44t42 144q0 156 -145 156h-66v-344z" />
<glyph unicode="&#xdf;" horiz-adv-x="1370" d="M86 0v1042q0 231 136 345t358 114q154 0 254 -43t148 -126t65.5 -172t17.5 -214v-147q129 -37 201.5 -130.5t72.5 -232.5q0 -197 -116.5 -326.5t-341.5 -129.5q-137 0 -291 59l63 307q74 -27 133 -27q113 0 113 117q0 143 -252 144v503q0 59 -12 85t-51 26 q-68 0 -68 -104v-1090h-430z" />
<glyph unicode="&#xe0;" horiz-adv-x="1185" d="M41 336q0 385 430 385q72 0 154 -19q0 115 -179 115q-123 0 -278 -49l-41 299q193 61 416 61q195 0 303 -50t153 -175q33 -86 33 -225v-352q0 -96 109 -43l33 -252q-113 -51 -256 -51q-160 0 -230 126q-117 -127 -297 -126q-170 0 -260 98t-90 258zM276 1370l115 258 l418 -213l-98 -217zM457 383q0 -104 78 -104q29 0 55 18t35 39v123q-4 8 -28 16t-50 8q-90 0 -90 -100z" />
<glyph unicode="&#xe1;" horiz-adv-x="1185" d="M41 336q0 385 430 385q72 0 154 -19q0 115 -179 115q-123 0 -278 -49l-41 299q193 61 416 61q195 0 303 -50t153 -175q33 -86 33 -225v-352q0 -96 109 -43l33 -252q-113 -51 -256 -51q-160 0 -230 126q-117 -127 -297 -126q-170 0 -260 98t-90 258zM313 1415l424 215 l109 -260l-434 -172zM457 383q0 -104 78 -104q29 0 55 18t35 39v123q-4 8 -28 16t-50 8q-90 0 -90 -100z" />
<glyph unicode="&#xe2;" horiz-adv-x="1185" d="M41 336q0 385 430 385q72 0 154 -19q0 115 -179 115q-123 0 -278 -49l-41 299q193 61 416 61q195 0 303 -50t153 -175q33 -86 33 -225v-352q0 -96 109 -43l33 -252q-113 -51 -256 -51q-160 0 -230 126q-117 -127 -297 -126q-170 0 -260 98t-90 258zM164 1374l252 248h301 l225 -256l-164 -170l-221 172l-231 -172zM457 383q0 -104 78 -104q29 0 55 18t35 39v123q-4 8 -28 16t-50 8q-90 0 -90 -100z" />
<glyph unicode="&#xe3;" horiz-adv-x="1185" d="M41 336q0 385 430 385q72 0 154 -19q0 115 -179 115q-123 0 -278 -49l-41 299q193 61 416 61q195 0 303 -50t153 -175q33 -86 33 -225v-352q0 -96 109 -43l33 -252q-113 -51 -256 -51q-160 0 -230 126q-117 -127 -297 -126q-170 0 -260 98t-90 258zM207 1509 q29 25 89 46.5t110 21.5q51 0 145 -28.5t143 -28.5q80 0 140 34l20 -268q-59 -31 -147 -31q-51 0 -147.5 24t-131.5 24q-96 0 -182 -52zM457 383q0 -104 78 -104q29 0 55 18t35 39v123q-4 8 -28 16t-50 8q-90 0 -90 -100z" />
<glyph unicode="&#xe4;" horiz-adv-x="1185" d="M41 336q0 385 430 385q72 0 154 -19q0 115 -179 115q-123 0 -278 -49l-41 299q193 61 416 61q195 0 303 -50t153 -175q33 -86 33 -225v-352q0 -96 109 -43l33 -252q-113 -51 -256 -51q-160 0 -230 126q-117 -127 -297 -126q-170 0 -260 98t-90 258zM82 1399q0 90 52 139 t134 49q193 0 193 -188q0 -90 -52.5 -138.5t-140.5 -48.5q-86 0 -136 49.5t-50 137.5zM457 383q0 -104 78 -104q29 0 55 18t35 39v123q-4 8 -28 16t-50 8q-90 0 -90 -100zM645 1399q0 90 51.5 139t134.5 49q193 0 193 -188q0 -88 -54.5 -137.5t-138 -49.5t-135 49.5 t-51.5 137.5z" />
<glyph unicode="&#xe5;" horiz-adv-x="1185" d="M41 336q0 385 430 385q72 0 154 -19q0 115 -179 115q-123 0 -278 -49l-41 299q193 61 416 61q195 0 303 -50t153 -175q33 -86 33 -225v-352q0 -96 109 -43l33 -252q-113 -51 -256 -51q-160 0 -230 126q-117 -127 -297 -126q-170 0 -260 98t-90 258zM276 1478.5 q0 120.5 82 201.5t207 81q133 0 210 -77.5t77 -192.5q0 -127 -82 -212t-213 -85t-206 82t-75 202.5zM457 383q0 -104 78 -104q29 0 55 18t35 39v123q-4 8 -28 16t-50 8q-90 0 -90 -100zM475 1479q0 -47 23.5 -79t66.5 -32t66.5 33t23.5 78q0 106 -90 106t-90 -106z" />
<glyph unicode="&#xe6;" horiz-adv-x="1591" d="M41 336q0 387 430 387q70 0 154 -21q0 115 -179 115q-123 0 -278 -49l-41 301q61 23 184 41t228 18q227 0 303 -122q119 123 297 122q203 0 309 -140t106 -392v-127h-524q10 -80 64.5 -112.5t117.5 -32.5q139 0 297 79l19 -346q-141 -78 -357 -77q-240 0 -374 129 q-166 -129 -348 -129q-209 0 -308.5 97t-99.5 259zM457 383q0 -55 27.5 -79.5t66.5 -24.5q59 0 102 38q-20 72 -24 146q-29 25 -72 24q-100 0 -100 -104zM1032 698h131q0 137 -65.5 137t-65.5 -137z" />
<glyph unicode="&#xe7;" horiz-adv-x="1003" d="M37 559q0 115 27.5 212t87 180t169 130t257.5 47q182 0 294.5 -97t145.5 -273l-350 -107q-14 78 -37 111t-62 33q-88 0 -88 -205q0 -133 42 -199.5t147 -66.5q133 0 262 73l16 -348q-158 -70 -354 -69q-156 0 -268.5 47t-173 132t-88 183t-27.5 217zM309 -539l45 164 q53 -18 107 -18q78 0 78 63.5t-76 63.5q-31 0 -80 -10v159q74 18 162 19q109 0 166 -58.5t57 -142.5q0 -137 -89 -200.5t-212 -63.5q-82 -1 -158 24z" />
<glyph unicode="&#xe8;" horiz-adv-x="1030" d="M37 571q0 276 141 416.5t352 140.5q463 0 463 -526v-133h-524q18 -145 182 -145q141 0 299 88l19 -355q-152 -78 -359 -77q-573 -1 -573 591zM283 1370l114 258l418 -213l-98 -217zM471 705h131q0 131 -67 131q-64 0 -64 -131z" />
<glyph unicode="&#xe9;" horiz-adv-x="1030" d="M37 571q0 276 141 416.5t352 140.5q463 0 463 -526v-133h-524q18 -145 182 -145q141 0 299 88l19 -355q-152 -78 -359 -77q-573 -1 -573 591zM311 1415l424 215l109 -260l-434 -172zM471 705h131q0 131 -67 131q-64 0 -64 -131z" />
<glyph unicode="&#xea;" horiz-adv-x="1030" d="M37 571q0 276 141 416.5t352 140.5q463 0 463 -526v-133h-524q18 -145 182 -145q141 0 299 88l19 -355q-152 -78 -359 -77q-573 -1 -573 591zM145 1374l252 248h301l226 -256l-164 -170l-221 172l-232 -172zM471 705h131q0 131 -67 131q-64 0 -64 -131z" />
<glyph unicode="&#xeb;" horiz-adv-x="1030" d="M37 571q0 276 141 416.5t352 140.5q463 0 463 -526v-133h-524q18 -145 182 -145q141 0 299 88l19 -355q-152 -78 -359 -77q-573 -1 -573 591zM66 1399q0 90 52 139t134 49q193 0 192 -188q0 -90 -52 -138.5t-140 -48.5q-86 0 -136 49.5t-50 137.5zM471 705h131 q0 131 -67 131q-64 0 -64 -131zM629 1399q0 90 51 139t135 49q193 0 193 -188q0 -88 -54.5 -137.5t-138.5 -49.5t-135 49.5t-51 137.5z" />
<glyph unicode="&#xec;" horiz-adv-x="604" d="M18 1370l115 258l418 -213l-98 -217zM86 0v1108h432v-1108h-432z" />
<glyph unicode="&#xed;" horiz-adv-x="604" d="M23 1415l423 215l109 -260l-434 -172zM86 0v1108h432v-1108h-432z" />
<glyph unicode="&#xee;" horiz-adv-x="604" d="M-92 1374l252 248h301l225 -256l-164 -170l-221 172l-231 -172zM86 0v1108h432v-1108h-432z" />
<glyph unicode="&#xef;" horiz-adv-x="604" d="M-172 1399q0 90 52 139t134 49q193 0 193 -188q0 -90 -52.5 -138.5t-140.5 -48.5q-86 0 -136 49.5t-50 137.5zM86 0v1108h432v-1108h-432zM391 1399q0 90 51.5 139t135.5 49q193 0 192 -188q0 -88 -54 -137.5t-138 -49.5t-135.5 49.5t-51.5 137.5z" />
<glyph unicode="&#xf0;" horiz-adv-x="1134" d="M33 514q0 223 127 356.5t313 133.5q104 0 182 -52q-16 66 -64 114t-115.5 72.5t-133.5 36t-135 13.5l55 285q248 0 400 -76l114 131l223 -189l-104 -114q188 -223 188 -598q0 -647 -542 -647q-246 0 -377 148t-131 386zM473 520q0 -125 17.5 -179t74.5 -54q100 0 101 252 q0 96 -9 161q-33 16 -82 17q-45 0 -73.5 -51.5t-28.5 -145.5z" />
<glyph unicode="&#xf1;" horiz-adv-x="1177" d="M86 0v1108h373l20 -68q125 88 283 88q287 0 321 -256q8 -55 9 -139v-733h-435v680q0 33 -2 45q-4 51 -51 51q-43 0 -84 -12v-764h-434zM262 1509q29 25 89.5 46.5t109.5 21.5q51 0 145 -28.5t144 -28.5q80 0 139 34l20 -268q-59 -31 -147 -31q-51 0 -147.5 24t-131.5 24 q-96 0 -182 -52z" />
<glyph unicode="&#xf2;" horiz-adv-x="1132" d="M37 555q0 258 136 415.5t402 157.5q520 0 521 -557q0 -125 -30 -228t-91.5 -186t-169 -130t-250.5 -47q-141 0 -245.5 47t-162 130t-84 181t-26.5 217zM307 1370l115 258l418 -213l-99 -217zM477 553q0 -141 19.5 -195.5t68.5 -54.5q88 0 88 252q0 133 -18.5 188.5 t-65.5 55.5q-51 0 -71.5 -54.5t-20.5 -191.5z" />
<glyph unicode="&#xf3;" horiz-adv-x="1132" d="M37 555q0 258 136 415.5t402 157.5q520 0 521 -557q0 -125 -30 -228t-91.5 -186t-169 -130t-250.5 -47q-141 0 -245.5 47t-162 130t-84 181t-26.5 217zM367 1415l424 215l108 -260l-434 -172zM477 553q0 -141 19.5 -195.5t68.5 -54.5q88 0 88 252q0 133 -18.5 188.5 t-65.5 55.5q-51 0 -71.5 -54.5t-20.5 -191.5z" />
<glyph unicode="&#xf4;" horiz-adv-x="1132" d="M37 555q0 258 136 415.5t402 157.5q520 0 521 -557q0 -125 -30 -228t-91.5 -186t-169 -130t-250.5 -47q-141 0 -245.5 47t-162 130t-84 181t-26.5 217zM178 1374l252 248h301l225 -256l-163 -170l-222 172l-231 -172zM477 553q0 -141 19.5 -195.5t68.5 -54.5q88 0 88 252 q0 133 -18.5 188.5t-65.5 55.5q-51 0 -71.5 -54.5t-20.5 -191.5z" />
<glyph unicode="&#xf5;" horiz-adv-x="1132" d="M37 555q0 258 136 415.5t402 157.5q520 0 521 -557q0 -125 -30 -228t-91.5 -186t-169 -130t-250.5 -47q-141 0 -245.5 47t-162 130t-84 181t-26.5 217zM242 1509q29 25 89 46.5t109 21.5q51 0 145.5 -28.5t143.5 -28.5q80 0 139 34l21 -268q-59 -31 -148 -31 q-51 0 -147 24t-131 24q-96 0 -182 -52zM477 553q0 -141 19.5 -195.5t68.5 -54.5q88 0 88 252q0 133 -18.5 188.5t-65.5 55.5q-51 0 -71.5 -54.5t-20.5 -191.5z" />
<glyph unicode="&#xf6;" horiz-adv-x="1132" d="M37 555q0 258 136 415.5t402 157.5q520 0 521 -557q0 -125 -30 -228t-91.5 -186t-169 -130t-250.5 -47q-141 0 -245.5 47t-162 130t-84 181t-26.5 217zM92 1399q0 90 52.5 139t134.5 49q193 0 192 -188q0 -90 -52 -138.5t-140 -48.5q-86 0 -136.5 49.5t-50.5 137.5z M477 553q0 -141 19.5 -195.5t68.5 -54.5q88 0 88 252q0 133 -18.5 188.5t-65.5 55.5q-51 0 -71.5 -54.5t-20.5 -191.5zM655 1399q0 90 51.5 139t135.5 49q193 0 192 -188q0 -88 -54 -137.5t-138 -49.5t-135.5 49.5t-51.5 137.5z" />
<glyph unicode="&#xf7;" d="M80 453v344h1010v-344h-1010zM416 174q0 76 46 131t128 55t129 -51t47 -133q0 -80 -49 -134t-129 -54q-82 0 -127 51t-45 135zM416 1098q0 76 46 131t128 55t129 -51t47 -133q0 -80 -49 -133.5t-129 -53.5q-82 0 -127 50.5t-45 134.5z" />
<glyph unicode="&#xf8;" horiz-adv-x="1132" d="M37 555q0 258 136 415.5t402 157.5q68 0 117 -8l84 174l260 -123l-84 -167q143 -137 144 -433q0 -125 -30 -228t-91.5 -186t-169 -130t-250.5 -47q-68 0 -127 12l-96 -201l-256 115l102 213q-141 149 -141 436zM477 553q0 -141 19.5 -195.5t68.5 -54.5q88 0 88 252 q0 133 -18.5 188.5t-65.5 55.5q-51 0 -71.5 -54.5t-20.5 -191.5z" />
<glyph unicode="&#xf9;" horiz-adv-x="1181" d="M86 377v688l438 43v-678q0 -45 2 -57q8 -41 54 -41q35 0 82 14v762h434v-1108h-371l-20 66q-123 -86 -285 -86q-287 0 -326 256q-8 57 -8 141zM332 1370l114 258l418 -213l-98 -217z" />
<glyph unicode="&#xfa;" horiz-adv-x="1181" d="M86 377v688l438 43v-678q0 -45 2 -57q8 -41 54 -41q35 0 82 14v762h434v-1108h-371l-20 66q-123 -86 -285 -86q-287 0 -326 256q-8 57 -8 141zM367 1415l424 215l108 -260l-434 -172z" />
<glyph unicode="&#xfb;" horiz-adv-x="1181" d="M86 377v688l438 43v-678q0 -45 2 -57q8 -41 54 -41q35 0 82 14v762h434v-1108h-371l-20 66q-123 -86 -285 -86q-287 0 -326 256q-8 57 -8 141zM205 1374l252 248h301l225 -256l-164 -170l-221 172l-231 -172z" />
<glyph unicode="&#xfc;" horiz-adv-x="1181" d="M86 377v688l438 43v-678q0 -45 2 -57q8 -41 54 -41q35 0 82 14v762h434v-1108h-371l-20 66q-123 -86 -285 -86q-287 0 -326 256q-8 57 -8 141zM117 1399q0 90 52 139t134 49q193 0 193 -188q0 -90 -52.5 -138.5t-140.5 -48.5q-86 0 -136 49.5t-50 137.5zM680 1399 q0 90 51 139t135 49q193 0 193 -188q0 -88 -54.5 -137.5t-138.5 -49.5t-135 49.5t-51 137.5z" />
<glyph unicode="&#xfd;" horiz-adv-x="1150" d="M-141 -387l106 340q143 -72 228 -72q63 0 105 50.5t83 160.5l-399 975l458 41l125 -457q29 -96 29 -178h8q72 283 135 635l424 -43q-141 -494 -340 -979q-41 -96 -74.5 -166t-87 -149.5t-109.5 -129t-134 -83t-166 -33.5q-227 0 -391 88zM381 1415l424 215l108 -260 l-434 -172z" />
<glyph unicode="&#xfe;" horiz-adv-x="1159" d="M86 -428v1903h414v-424q111 78 239 77q383 0 383 -499q0 -305 -101 -477t-298 -172q-123 0 -209 43v-451h-428zM520 309q20 -12 60 -12q66 0 89 63.5t23 235.5q0 104 -21.5 144t-76.5 40q-37 0 -74 -8v-463z" />
<glyph unicode="&#xff;" horiz-adv-x="1150" d="M-141 -387l106 340q143 -72 228 -72q63 0 105 50.5t83 160.5l-399 975l458 41l125 -457q29 -96 29 -178h8q72 283 135 635l424 -43q-141 -494 -340 -979q-41 -96 -74.5 -166t-87 -149.5t-109.5 -129t-134 -83t-166 -33.5q-227 0 -391 88zM113 1399q0 90 52 139t134 49 q193 0 193 -188q0 -90 -52.5 -138.5t-140.5 -48.5q-86 0 -136 49.5t-50 137.5zM676 1399q0 90 51 139t135 49q193 0 193 -188q0 -88 -54.5 -137.5t-138.5 -49.5t-135 49.5t-51 137.5z" />
<glyph unicode="&#x152;" horiz-adv-x="1941" d="M59 756q0 352 169 545.5t466 193.5q80 0 180 -22h1014v-361h-622q29 -102 37 -197h512v-348h-517q-20 -143 -41 -207h654v-360h-1034q-96 -20 -195 -20q-295 0 -459 180t-164 596zM526 752q0 -225 36 -316.5t126 -91.5q88 0 127 86t39 332q0 207 -38 282.5t-120 75.5 q-86 0 -128 -78.5t-42 -289.5z" />
<glyph unicode="&#x153;" horiz-adv-x="1638" d="M37 557q0 250 133 410.5t371 160.5q193 0 313 -116q53 53 137 84.5t174 31.5q215 0 326 -138t111 -388v-133h-527q18 -145 193 -145q131 0 288 88l19 -353q-150 -80 -338 -79q-254 0 -375 131q-117 -131 -348 -131q-102 0 -185 32.5t-136.5 88t-89 131t-51 156.5 t-15.5 169zM481 553q0 -141 17.5 -191.5t66.5 -50.5q47 0 65.5 58.5t18.5 199.5q0 125 -16.5 177.5t-63.5 52.5q-51 0 -69.5 -53.5t-18.5 -192.5zM1077 702h133q0 131 -69 132q-64 -1 -64 -132z" />
<glyph unicode="&#x178;" horiz-adv-x="1390" d="M-16 1473h487l168 -402q43 -102 61 -217h11q16 115 63 231l150 388h483l-487 -961v-512h-443v506zM268 1776q0 90 52.5 139t134.5 49q193 0 192 -188q0 -90 -52 -138.5t-140 -48.5q-86 0 -136.5 49.5t-50.5 137.5zM791 1776q0 90 51 139t135 49q193 0 192 -188 q0 -88 -54 -137.5t-138 -49.5t-135 49.5t-51 137.5z" />
<glyph unicode="&#x2c6;" horiz-adv-x="1097" d="M156 1374l252 248h301l225 -256l-164 -170l-221 172l-232 -172z" />
<glyph unicode="&#x2dc;" horiz-adv-x="1077" d="M203 1509q29 25 89 46.5t109 21.5q51 0 145.5 -28.5t143.5 -28.5q80 0 139 34l21 -268q-59 -31 -148 -31q-51 0 -147 24t-131 24q-96 0 -182 -52z" />
<glyph unicode="&#x2000;" horiz-adv-x="985" />
<glyph unicode="&#x2001;" horiz-adv-x="1972" />
<glyph unicode="&#x2002;" horiz-adv-x="985" />
<glyph unicode="&#x2003;" horiz-adv-x="1972" />
<glyph unicode="&#x2004;" horiz-adv-x="657" />
<glyph unicode="&#x2005;" horiz-adv-x="491" />
<glyph unicode="&#x2006;" horiz-adv-x="327" />
<glyph unicode="&#x2007;" horiz-adv-x="327" />
<glyph unicode="&#x2008;" horiz-adv-x="245" />
<glyph unicode="&#x2009;" horiz-adv-x="393" />
<glyph unicode="&#x200a;" horiz-adv-x="108" />
<glyph unicode="&#x2010;" horiz-adv-x="763" d="M74 455v317h616v-317h-616z" />
<glyph unicode="&#x2011;" horiz-adv-x="763" d="M74 455v317h616v-317h-616z" />
<glyph unicode="&#x2012;" horiz-adv-x="763" d="M74 455v317h616v-317h-616z" />
<glyph unicode="&#x2013;" horiz-adv-x="1024" d="M20 395v316h984v-316h-984z" />
<glyph unicode="&#x2014;" horiz-adv-x="2048" d="M20 395v316h2008v-316h-2008z" />
<glyph unicode="&#x2018;" horiz-adv-x="473" d="M51 1108q0 39 10 76l109 424l203 -15l37 -438q0 -4 1 -16.5t1 -18.5q0 -80 -46.5 -130t-140.5 -50q-82 0 -128 46t-46 122z" />
<glyph unicode="&#x2019;" horiz-adv-x="473" d="M61 1427q0 80 46.5 130.5t140.5 50.5q82 0 128 -46t46 -122q0 -39 -10 -76l-109 -424l-203 14l-37 439q0 4 -1 16t-1 18z" />
<glyph unicode="&#x201a;" horiz-adv-x="483" d="M61 154q0 80 46.5 130t140.5 50q82 0 128 -46t46 -122q0 -39 -10 -76l-109 -424l-203 15l-37 438q0 4 -1 16.5t-1 18.5z" />
<glyph unicode="&#x201c;" horiz-adv-x="944" d="M51 1108q0 39 10 76l109 424l203 -15l37 -438q0 -4 1 -16.5t1 -18.5q0 -80 -46.5 -130t-140.5 -50q-82 0 -128 46t-46 122zM522 1108q0 39 10 76l109 424l203 -15l37 -438q0 -4 1 -16.5t1 -18.5q0 -80 -46 -130t-141 -50q-82 0 -128 46t-46 122z" />
<glyph unicode="&#x201d;" horiz-adv-x="944" d="M61 1427q0 80 46.5 130.5t140.5 50.5q82 0 128 -46t46 -122q0 -39 -10 -76l-109 -424l-203 14l-37 439q0 4 -1 16t-1 18zM532 1427q0 80 46.5 130.5t140.5 50.5q82 0 128 -46t46 -122q0 -39 -10 -76l-109 -424l-203 14l-36 439q0 4 -1.5 16t-1.5 18z" />
<glyph unicode="&#x201e;" horiz-adv-x="954" d="M61 154q0 80 46.5 130t140.5 50q82 0 128 -46t46 -122q0 -39 -10 -76l-109 -424l-203 15l-37 438q0 4 -1 16.5t-1 18.5zM532 154q0 80 46.5 130t140.5 50q82 0 128 -46t46 -122q0 -39 -10 -76l-109 -424l-203 15l-36 438q0 4 -1.5 16.5t-1.5 18.5z" />
<glyph unicode="&#x2022;" horiz-adv-x="868" d="M160 729q0 129 77.5 211t196.5 82q121 0 198 -82t77 -211t-77 -210t-198 -81t-197.5 79t-76.5 212z" />
<glyph unicode="&#x2026;" horiz-adv-x="1662" d="M86 193q0 88 56.5 151.5t150.5 63.5q96 0 151.5 -58.5t55.5 -154.5q0 -92 -57.5 -153.5t-153.5 -61.5q-94 0 -148.5 58.5t-54.5 154.5zM631 193q0 88 55 151.5t150 63.5q96 0 151 -58.5t55 -154.5q0 -92 -57 -153.5t-154 -61.5q-94 0 -147 58.5t-53 154.5zM1163 193 q0 88 55.5 151.5t149.5 63.5q96 0 151.5 -58.5t55.5 -154.5q0 -92 -57.5 -153.5t-153.5 -61.5q-94 0 -147.5 58.5t-53.5 154.5z" />
<glyph unicode="&#x202f;" horiz-adv-x="393" />
<glyph unicode="&#x2039;" horiz-adv-x="772" d="M20 590l472 500l235 -252l-246 -242l260 -260l-239 -246z" />
<glyph unicode="&#x203a;" horiz-adv-x="772" d="M31 336l260 260l-246 242l236 252l471 -500l-482 -500z" />
<glyph unicode="&#x205f;" horiz-adv-x="491" />
<glyph unicode="&#x20ac;" horiz-adv-x="1218" d="M72 569v269h135q12 131 46 231t94.5 185t163.5 130.5t243 45.5q92 0 165.5 -27t116.5 -61.5t79 -91t49.5 -92.5t29.5 -87l-324 -86q-16 74 -46.5 105.5t-86.5 31.5q-141 0 -145 -284h328v-269h-326q10 -301 164 -301q55 0 94 34t76 108l274 -164q-154 -266 -444 -266 q-512 0 -547 589h-139z" />
<glyph unicode="&#x2122;" horiz-adv-x="1798" d="M31 1260v213h723v-213h-232v-642h-256v642h-235zM813 618l59 855h271l110 -347q25 -74 37 -163h6q2 61 33 163l113 347h260l55 -855h-244l-20 338v84h-8q0 -37 -21 -98l-80 -240h-188l-90 263q-12 33 -12 79h-7q0 -16 -2 -49v-34l-22 -343h-250z" />
<glyph unicode="&#xe000;" horiz-adv-x="1110" d="M0 1110h1110v-1110h-1110v1110z" />
<glyph unicode="&#xfb01;" horiz-adv-x="1292" d="M0 813v295h141q0 90 23 145q100 250 465 250q223 0 372 -53l-28 -289q-131 37 -252 37q-72 0 -111 -16.5t-39 -73.5h635v-1108h-432v813h-203v-813h-430v813h-141z" />
<glyph unicode="&#xfb02;" horiz-adv-x="1437" d="M0 813v295h141q0 51 13 98q41 139 184 217t385 78q252 0 498 -86v-1007q0 -78 63 -78q43 0 102 28l52 -319q-133 -59 -318 -59q-276 0 -325 219q-12 51 -13 125v872q-49 6 -104 6q-51 0 -79 -19.5t-28 -74.5h134v-295h-134v-813h-430v813h-141z" />
<glyph unicode="&#xfb03;" horiz-adv-x="1929" d="M0 813v295h141q0 121 43 203q100 193 402 192q109 0 202 -20l-32 -285q-49 8 -78 8q-55 0 -81 -19.5t-26 -78.5h207q0 90 23 145q100 250 465 250q223 0 372 -53l-28 -289q-131 37 -252 37q-72 0 -111 -16.5t-39 -73.5h635v-1108h-432v813h-203v-813h-430v813h-207v-813 h-430v813h-141z" />
<glyph unicode="&#xfb04;" horiz-adv-x="2076" d="M0 813v295h141q0 121 43 205q100 193 402 192q109 0 202 -20l-32 -285q-49 8 -78 8q-55 0 -81 -20.5t-26 -79.5h209q0 59 13 104q41 139 184 216t385 77q250 0 498 -86v-1011q0 -78 51 -78q55 0 114 28l52 -319q-150 -59 -318 -59q-276 0 -325 219q-12 51 -13 125v876 q-49 6 -104 6q-106 0 -107 -98h133v-295h-133v-813h-430v813h-209v-813h-430v813h-141z" />
</font>
</defs>
</svg>
